<?xml version="1.0" encoding="UTF-8"?>
<svg version="1.1" xmlns="http://www.w3.org/2000/svg" width="512" height="512">
<path d="M0 0 C1.01790619 0.00215515 2.03581238 0.0043103 3.08456421 0.00653076 C17.69363523 0.05620146 32.02575853 0.30709809 46.375 3.3125 C47.34985352 3.51117676 48.32470703 3.70985352 49.32910156 3.91455078 C97.7109774 14.03517194 141.69928269 35.9516877 177.375 70.3125 C178.3640332 71.26068604 178.3640332 71.26068604 179.37304688 72.22802734 C188.86130305 81.37247479 197.6012044 90.66984009 205.375 101.3125 C206.23306152 102.46355017 207.09113451 103.61459177 207.94921875 104.765625 C213.98736829 112.95680614 219.34595521 121.47054105 224.375 130.3125 C224.73948242 130.94430176 225.10396484 131.57610352 225.47949219 132.22705078 C247.08534998 169.97532572 256.85198095 212.74189997 256.6875 255.9375 C256.68534485 256.95540619 256.6831897 257.97331238 256.68096924 259.02206421 C256.63129854 273.63113523 256.38040191 287.96325853 253.375 302.3125 C253.07698486 303.77478027 253.07698486 303.77478027 252.77294922 305.26660156 C242.65232806 353.6484774 220.7358123 397.63678269 186.375 433.3125 C185.74287598 433.97185547 185.11075195 434.63121094 184.45947266 435.31054688 C175.31502521 444.79880305 166.01765991 453.5387044 155.375 461.3125 C154.22394983 462.17056152 153.07290823 463.02863451 151.921875 463.88671875 C143.73224019 469.92427396 135.22961724 475.30707302 126.375 480.3125 C125.66778809 480.7146875 124.96057617 481.116875 124.23193359 481.53125 C101.09654164 494.5566741 75.92537591 503.30551461 49.9375 508.625 C49.21860596 508.77235596 48.49971191 508.91971191 47.7590332 509.0715332 C33.08339502 511.86090125 18.55831162 512.66142619 3.64770508 512.62817383 C0.70811513 512.6250221 -2.2304558 512.64854926 -5.16992188 512.67382812 C-18.54306192 512.71848737 -31.43916711 511.51301542 -44.625 509.3125 C-46.33055054 509.03031616 -46.33055054 509.03031616 -48.07055664 508.74243164 C-91.33802759 500.97044532 -132.38793216 480.98345309 -165.625 452.3125 C-166.37007813 451.67828125 -167.11515625 451.0440625 -167.8828125 450.390625 C-181.38779833 438.57948485 -194.05918743 425.82889772 -204.625 411.3125 C-205.48149066 410.16255169 -206.33826433 409.01281411 -207.1953125 407.86328125 C-213.23534209 399.67315742 -218.61867614 391.16870382 -223.625 382.3125 C-224.0271875 381.60528809 -224.429375 380.89807617 -224.84375 380.16943359 C-237.8691741 357.03404164 -246.61801461 331.86287591 -251.9375 305.875 C-252.08485596 305.15610596 -252.23221191 304.43721191 -252.3840332 303.6965332 C-255.35789088 288.05024391 -255.99800362 272.57681954 -255.9375 256.6875 C-255.93534485 255.66959381 -255.9331897 254.65168762 -255.93096924 253.60293579 C-255.88129854 238.99386477 -255.63040191 224.66174147 -252.625 210.3125 C-252.42632324 209.33764648 -252.22764648 208.36279297 -252.02294922 207.35839844 C-241.90232806 158.9765226 -219.9858123 114.98821731 -185.625 79.3125 C-184.99287598 78.65314453 -184.36075195 77.99378906 -183.70947266 77.31445312 C-174.56502521 67.82619695 -165.26765991 59.0862956 -154.625 51.3125 C-153.47394983 50.45443848 -152.32290823 49.59636549 -151.171875 48.73828125 C-142.98224019 42.70072604 -134.47961724 37.31792698 -125.625 32.3125 C-124.91778809 31.9103125 -124.21057617 31.508125 -123.48193359 31.09375 C-100.34654164 18.0683259 -75.17537591 9.31948539 -49.1875 4 C-48.46860596 3.85264404 -47.74971191 3.70528809 -47.0090332 3.5534668 C-31.36274391 0.57960912 -15.88931954 -0.06050362 0 0 Z " fill="#03B8FF" transform="translate(255.625,-0.3125)"/>
<path d="M0 0 C2.6875 2.4375 2.6875 2.4375 5 5 C5.59039062 5.57492188 6.18078125 6.14984375 6.7890625 6.7421875 C19.05910488 19.29647796 24.50713347 36.001754 24.35424805 53.28320312 C23.69891525 75.23569416 13.41960376 91.03369251 -1.67016602 106.12182617 C-2.73279647 107.19509658 -3.79482658 108.26896167 -4.85630798 109.34336853 C-7.71719763 112.23478207 -10.58760235 115.11655617 -13.4609158 117.99561858 C-15.26185183 119.80093365 -17.0607653 121.60823996 -18.85902214 123.41622353 C-25.15017032 129.7410256 -31.44949063 136.05756274 -37.75610352 142.36694336 C-43.60687239 148.22074582 -49.43866611 154.09299489 -55.26204544 159.97403353 C-60.28677352 165.04672833 -65.32508956 170.10566167 -70.37382835 175.15445882 C-73.37831521 178.15948045 -76.37717122 181.16961363 -79.36218452 184.19399071 C-82.1727799 187.04077349 -85.00010488 189.86986713 -87.84038734 192.68702126 C-88.8710582 193.71486191 -89.89595214 194.74853907 -90.9140358 195.78884888 C-101.44598696 206.53605302 -112.70498109 213.20326923 -127.9375 213.375 C-136.58734349 213.41176717 -143.45350869 212.57143224 -151 208 C-151.7425 207.55398438 -152.485 207.10796875 -153.25 206.6484375 C-161.87500413 200.80042334 -168.09648164 191.72828455 -170.5859375 181.62109375 C-172.86342177 167.20418858 -169.27189503 156.64503824 -161 145 C-158.34427281 141.85431841 -155.48948227 138.95994474 -152.55786133 136.07202148 C-151.74396439 135.25432785 -150.93006744 134.43663422 -150.09150696 133.59416199 C-147.43131664 130.92663451 -144.75713323 128.27366004 -142.08203125 125.62109375 C-140.21758722 123.75903697 -138.35388525 121.8962369 -136.4908905 120.0327301 C-132.60171028 116.14541272 -128.70492181 112.26586137 -124.80297852 108.39135742 C-120.2967096 103.91666147 -115.8011039 99.43147386 -111.3113268 94.9402346 C-106.97582154 90.6035084 -102.63452541 86.27263766 -98.29022789 81.94471931 C-96.44740893 80.10826617 -94.60580008 78.2705979 -92.76542091 76.43169975 C-90.19992386 73.87052976 -87.62795625 71.31604715 -85.05395508 68.76342773 C-84.29387146 68.00243774 -83.53378784 67.24144775 -82.75067139 66.45739746 C-82.04849991 65.76375595 -81.34632843 65.07011444 -80.62287903 64.35545349 C-80.01621305 63.7521392 -79.40954706 63.1488249 -78.78449726 62.52722836 C-74.89674527 59.19996907 -71.3976587 58.43883297 -66.3828125 58.5546875 C-60.83474186 59.59154005 -57.16697038 63.40867675 -53.9375 67.8125 C-52.45797228 72.84289424 -52.60310431 77.17770054 -54.95703125 81.93359375 C-57.99099792 86.34246979 -61.92313106 89.82873875 -65.87109375 93.3984375 C-73.07702654 99.98305347 -79.95230706 106.87124697 -86.8125 113.8125 C-99.64465564 126.7939701 -99.64465564 126.7939701 -103.89453125 130.40625 C-109.87191278 135.49477232 -115.33711244 141.15112221 -120.88378906 146.69848633 C-122.88588191 148.6983699 -124.89587424 150.69008769 -126.90625 152.68164062 C-128.18538407 153.95784416 -129.46404706 155.23452008 -130.7421875 156.51171875 C-131.34110809 157.10345383 -131.94002869 157.6951889 -132.55709839 158.30485535 C-133.1117276 158.86256119 -133.66635681 159.42026703 -134.23779297 159.99487305 C-134.72440399 160.48005905 -135.21101501 160.96524506 -135.71237183 161.46513367 C-138.16819462 164.39250028 -138.96540967 166.61950634 -139.3125 170.4375 C-138.97749464 174.25656107 -138.37658622 176.02926723 -136 179 C-131.66525497 181.56060888 -127.90451635 182.13307859 -123 181 C-120.59769359 179.31869045 -120.59769359 179.31869045 -118.3225708 177.07421875 C-117.44857887 176.25381104 -116.57458694 175.43340332 -115.67411041 174.58813477 C-114.79165398 173.73405029 -113.90919754 172.87996582 -113 172 C-112.19087914 171.21874756 -111.38175827 170.43749512 -110.54811859 169.63256836 C-108.00331675 167.14638587 -105.48114117 164.63904324 -102.96386719 162.125 C-102.00680706 161.1725845 -101.04955631 160.22036052 -100.09213257 159.26831055 C-97.52381244 156.71294542 -94.95868701 154.15439857 -92.39459896 151.5947876 C-90.7871794 149.99032222 -89.17918434 148.38643574 -87.57102203 146.78271484 C-82.52307212 141.74838599 -77.47708833 136.71209896 -72.43400264 131.67289734 C-66.64130117 125.8846844 -60.842099 120.10308971 -55.03720737 114.32710266 C-50.52716105 109.83872665 -46.0229484 105.34454998 -41.52305722 100.84599304 C-38.84493955 98.16891817 -36.16450034 95.49427617 -33.47792816 92.82568359 C-30.95296222 90.31729481 -28.43537556 87.80172078 -25.92305374 85.28067017 C-24.57193223 83.92842205 -23.21343247 82.58355831 -21.85464478 81.23901367 C-12.52907875 71.84998657 -4.96626084 61.63025893 -4.5625 47.9375 C-5.02627855 36.35799688 -9.34600765 27.1670483 -17.75 19.1875 C-26.99764547 11.52262462 -38.37496891 9.98859792 -50 11 C-57.16410601 12.65393558 -62.28170625 15.96667472 -67.61297607 20.95706177 C-68.3879321 21.68040858 -68.3879321 21.68040858 -69.17854381 22.41836846 C-74.91127338 27.79845319 -80.49764667 33.32676891 -86.06738281 38.87451172 C-87.21855508 40.01775387 -88.36989698 41.16082522 -89.52139282 42.30374146 C-93.25225754 46.00875796 -96.97801296 49.71888845 -100.703125 53.4296875 C-101.99691243 54.71810299 -103.29070263 56.0065157 -104.58449554 57.29492569 C-109.96748637 62.65635731 -115.3490646 68.01920023 -120.72694778 73.38575554 C-128.38461785 81.02717509 -136.05067879 88.65995058 -143.72860837 96.28101528 C-149.1577136 101.67129602 -154.57708344 107.07124471 -159.98944736 112.47833455 C-163.20942956 115.69468533 -166.43335395 118.90682153 -169.66782379 122.10860825 C-172.70942601 125.11990207 -175.73865865 128.14313117 -178.75928879 131.175457 C-179.86100135 132.27738829 -180.9669016 133.37515352 -182.07755661 134.46807098 C-197.01734649 149.18239195 -205.12565017 165.22240418 -205.3125 186.5625 C-205.3292136 204.7079026 -197.93997934 220.26254335 -185.26171875 233.04296875 C-173.15740601 244.49457998 -158.32008998 249.38511414 -141.9375 249.25 C-140.99583984 249.25773437 -140.05417969 249.26546875 -139.08398438 249.2734375 C-130.99513123 249.25092156 -124.23132137 247.6193667 -116.625 244.8125 C-115.09746094 244.26529297 -115.09746094 244.26529297 -113.5390625 243.70703125 C-104.30584952 239.25348371 -97.14207277 232.56853261 -90.00805664 225.33276367 C-89.0564521 224.37866879 -88.10417123 223.42524808 -87.15127563 222.47244263 C-84.59341513 219.91120542 -82.04479896 217.3409499 -79.49773335 214.7689836 C-76.82101234 212.06960598 -74.1352236 209.37928137 -71.45030212 206.68806458 C-66.3767876 201.60012684 -61.31055254 196.50501008 -56.24732345 191.40683872 C-47.16465818 182.26197537 -38.06952631 173.12951749 -28.97175878 163.99968129 C-25.78163019 160.79773102 -22.59470861 157.59263192 -19.41044343 154.38485086 C-17.90977998 152.87369372 -16.40801928 151.36363709 -14.90579224 149.85403442 C-13.07453864 148.01358423 -11.24513981 146.17128599 -9.41792297 144.326828 C-8.61207764 143.51802185 -7.8062323 142.7092157 -6.97596741 141.87590027 C-6.27640962 141.17152423 -5.57685183 140.46714819 -4.85609531 139.74142742 C-2.07183767 137.1291787 -0.47817837 136.04427578 3.375 135.6875 C9.36299711 136.20370665 11.97400488 138.71726913 15.8125 143.125 C18.76815752 147.08519472 19.74239798 149.85393964 19.5390625 154.76171875 C17.68020021 162.48003827 12.35171408 167.08633756 6.88549805 172.53442383 C5.94165957 173.48560994 4.99844362 174.43741413 4.05580139 175.38978577 C1.50032645 177.96742972 -1.06466289 180.53539846 -3.63219094 183.10103059 C-5.78369422 185.25241377 -7.9308301 187.40813079 -10.0781104 189.56372756 C-15.15416417 194.65900465 -20.23833813 199.74607953 -25.32739258 204.82836914 C-30.55004722 210.04440738 -35.75784316 215.27494877 -40.95856124 220.51285154 C-45.44315301 225.02832211 -49.93754861 229.53387568 -54.43954247 234.03199595 C-57.11951545 236.70991744 -59.7957197 239.39133186 -62.46227455 242.08262062 C-83.61450192 263.41570808 -83.61450192 263.41570808 -96 270 C-96.88702103 270.4983284 -97.77404205 270.9966568 -98.6879425 271.51008606 C-119.58349906 283.02732531 -145.80080885 285.43604233 -168.72265625 279.3203125 C-193.87722485 271.89204117 -214.3377363 255.96721603 -227.02539062 232.88378906 C-239.20308972 209.3459318 -241.40780039 182.8213222 -233.83447266 157.52783203 C-226.79347863 136.19885247 -212.10340098 120.9729538 -196.55200195 105.35913086 C-195.43037884 104.22958293 -194.30892906 103.09986286 -193.18763733 101.96998596 C-189.5415225 98.29794654 -185.8902247 94.63108517 -182.23828125 90.96484375 C-180.97156092 89.69275334 -179.7048443 88.42065922 -178.43813133 87.14856148 C-173.1651488 81.85400217 -167.89074531 76.56086516 -162.61262226 71.27143002 C-155.09414239 63.73671795 -147.5842859 56.19364064 -140.08621246 48.63861936 C-134.78599333 43.29954289 -129.47607612 37.97023313 -124.15902871 32.6479159 C-120.99571084 29.48096902 -117.83659726 26.31009507 -114.68786049 23.12864494 C-111.72340116 20.13382159 -108.74694468 17.15143647 -105.76143456 14.17760277 C-104.6776632 13.09404973 -103.59803986 12.00632639 -102.52330017 10.91381454 C-74.72138789 -17.32205341 -32.66915176 -27.10370853 0 0 Z " fill="#FCFEFF" transform="translate(363,124)"/>
</svg>
