<?xml version="1.0" encoding="UTF-8"?>
<svg version="1.1" xmlns="http://www.w3.org/2000/svg" width="512" height="512">
<path d="M0 0 C7.70496025 8.15819321 9.76242852 17.31726855 9.83816528 28.29463196 C9.44369061 41.5274575 4.69165816 54.18493879 0.7089386 66.69686508 C-0.50631741 70.53774079 -1.68781716 74.38897751 -2.87207031 78.23950195 C-4.61124751 83.88545112 -6.35944222 89.52844573 -8.11982727 95.16781902 C-11.23425357 105.1467687 -14.28276556 115.14423 -17.2890625 125.15625 C-17.50835356 125.88639502 -17.72764462 126.61654003 -17.95358086 127.36881065 C-18.8414388 130.32577514 -19.72885735 133.28287085 -20.61555386 136.24018383 C-22.88576521 143.81145552 -25.16824695 151.37901194 -27.45145988 158.94637108 C-28.62808641 162.84643501 -29.80404172 166.7467013 -30.97998047 170.64697266 C-31.21625751 171.43062163 -31.45253454 172.21427061 -31.69597149 173.02166653 C-36.00613163 187.31781284 -40.31162737 201.61536506 -44.61767578 215.91275024 C-46.18514766 221.11723004 -47.75272442 226.32167825 -49.3203125 231.52612305 C-53.61611695 245.78845548 -57.91173505 260.050844 -62.20654297 274.31347656 C-62.48326749 275.23244846 -62.75999201 276.15142036 -63.04510212 277.0982399 C-64.16045675 280.80221824 -65.27581045 284.50619686 -66.39114189 288.21018219 C-69.36110954 298.0733075 -72.33152182 307.93629841 -75.3034668 317.79882812 C-75.68734605 319.07276617 -75.68734605 319.07276617 -76.07898045 320.37244034 C-77.08324499 323.70515795 -78.08751272 327.03787459 -79.09185982 330.37056732 C-81.77422419 339.27157655 -84.4541163 348.17330937 -87.12646484 357.07733154 C-88.32172862 361.05888291 -89.51917897 365.03977422 -90.71716309 369.02050781 C-91.22065564 370.69562355 -91.72310184 372.37105435 -92.22424316 374.046875 C-94.51783698 381.7163723 -96.89024278 389.33910015 -99.48326111 396.91331482 C-103.55415474 408.83520299 -106.65865457 420.84967862 -109.53442383 433.10668945 C-114.71583957 455.0608052 -121.2574552 478.41062531 -139.90234375 492.81640625 C-148.14727974 497.54024907 -158.86436066 498.03533156 -167.96484375 496.12890625 C-178.5151904 492.94255995 -187.27452258 486.51042195 -192.7890625 476.921875 C-194.52464401 473.53767036 -196.11662568 470.0881505 -197.72363281 466.64160156 C-199.40138653 463.15659829 -201.22850928 459.75616017 -203.04833984 456.34375 C-209.86726385 443.53710266 -216.0159043 430.46097691 -222.04003906 417.265625 C-224.03694032 412.89215868 -226.04545954 408.52406404 -228.0546875 404.15625 C-228.78135144 402.57609972 -229.50799517 400.99594015 -230.23461914 399.41577148 C-230.59766144 398.6262912 -230.96070374 397.83681091 -231.33474731 397.02340698 C-233.15755255 393.05893801 -234.97950462 389.09407769 -236.80078125 385.12890625 C-237.15190475 384.36449722 -237.50302826 383.6000882 -237.86479187 382.81251526 C-239.97302056 378.22069871 -242.07305694 373.62525021 -244.16796875 369.02734375 C-256.06493267 342.97054276 -268.51311568 317.20019091 -284.3125 293.25 C-284.79662354 292.51394531 -285.28074707 291.77789062 -285.77954102 291.01953125 C-291.02193312 283.24573194 -296.3464156 279.15282326 -304.75 275.125 C-305.71744141 274.65126953 -306.68488281 274.17753906 -307.68164062 273.68945312 C-310.74004266 272.19673208 -313.80591659 270.7206228 -316.875 269.25 C-317.83954102 268.78754883 -318.80408203 268.32509766 -319.79785156 267.84863281 C-323.61805526 266.01988113 -327.43979838 264.19445382 -331.26513672 262.37646484 C-337.84199363 259.24521005 -344.36910269 256.02588742 -350.875 252.75 C-357.94390899 249.19344544 -365.04014201 245.70863732 -372.1875 242.3125 C-383.16240601 237.09694344 -394.08230636 231.7715176 -405 226.4375 C-434.70501095 211.90387531 -434.70501095 211.90387531 -464.5625 197.6875 C-465.86721328 197.07297139 -467.17190264 196.458392 -468.4765625 195.84375 C-470.59064544 194.852318 -472.70964424 193.87121686 -474.8359375 192.90625 C-484.64155217 188.31262871 -491.61927113 182.00861194 -495.84375 171.94140625 C-499.51649866 161.31424 -498.76110627 151.31786865 -493.875 141.25 C-493.53210938 140.52941406 -493.18921875 139.80882812 -492.8359375 139.06640625 C-488.64962182 132.13872901 -481.03966536 129.37631835 -473.9296875 126.19799805 C-472.26419728 125.42956904 -470.62651588 124.60106381 -468.99902344 123.75512695 C-466.01575714 122.31781555 -463.19127614 121.32597975 -460.015625 120.40625 C-455.03226805 118.91884894 -450.09210629 117.33941568 -445.171875 115.65625 C-410.72029278 103.91609819 -375.75912575 94.11546854 -340.66259766 84.50073242 C-328.77943076 81.23667671 -316.9827586 77.81010313 -305.2578125 74.01721191 C-300.93790866 72.62630025 -296.60719114 71.26973213 -292.27734375 69.91015625 C-291.36458176 69.62328949 -290.45181976 69.33642273 -289.51139832 69.04086304 C-265.1685586 61.39533836 -240.76606016 53.97139494 -216.3175354 46.67196655 C-200.25516184 41.87382053 -184.20347775 37.04006668 -168.15151978 32.20721436 C-164.57846717 31.13152322 -161.00520837 30.05652187 -157.43173218 28.98223877 C-138.50067026 23.29086148 -119.5799178 17.56751377 -100.68359375 11.76171875 C-99.8780134 11.51458948 -99.07243305 11.26746021 -98.24244118 11.01284218 C-89.49397545 8.32760551 -80.76670719 5.59478572 -72.07702637 2.72409058 C-49.70205559 -4.65905763 -21.77976896 -13.25725067 0 0 Z M-45.875 4.25 C-45.875 4.91 -45.875 5.57 -45.875 6.25 C-46.52210938 6.46914063 -47.16921875 6.68828125 -47.8359375 6.9140625 C-51.99924382 8.74420487 -55.68205269 11.16691214 -59.5 13.625 C-61.21739346 14.72013749 -62.93484287 15.81518723 -64.65234375 16.91015625 C-65.52487793 17.46848145 -66.39741211 18.02680664 -67.29638672 18.60205078 C-71.20957225 21.10290311 -75.13544107 23.58350999 -79.0625 26.0625 C-79.83585693 26.55113525 -80.60921387 27.03977051 -81.40600586 27.54321289 C-94.08134326 35.54550818 -106.80782957 43.46663696 -119.52734375 51.3984375 C-121.15313354 52.41296997 -121.15313354 52.41296997 -122.81176758 53.44799805 C-124.8853258 54.74192759 -126.95935654 56.03510031 -129.03393555 57.32739258 C-133.69456172 60.23623999 -138.32851396 63.16543119 -142.875 66.25 C-142.215 66.58 -141.555 66.91 -140.875 67.25 C-138.53719055 66.20399741 -138.53719055 66.20399741 -135.90625 64.59375 C-134.35744141 63.68979492 -134.35744141 63.68979492 -132.77734375 62.76757812 C-131.65457031 62.10177734 -130.53179687 61.43597656 -129.375 60.75 C-128.19971566 60.06100063 -127.02392631 59.37286205 -125.84765625 58.68554688 C-123.40036358 57.25464607 -120.95530353 55.8200355 -118.51171875 54.3828125 C-112.98628646 51.13704251 -107.42923074 47.94614255 -101.875 44.75 C-99.70818132 43.50026352 -97.54151519 42.25026252 -95.375 41 C-82.375 33.5 -82.375 33.5 -79.11987305 31.62231445 C-76.96998131 30.38181188 -74.82040041 29.14077044 -72.67114258 27.89916992 C-67.60703521 24.97456618 -62.53999098 22.05546233 -57.4616394 19.15567017 C-55.06962883 17.78936128 -52.67940292 16.41994714 -50.28930664 15.05029297 C-48.60671037 14.08778986 -46.92155164 13.12977069 -45.23632812 12.171875 C-44.21345703 11.58535156 -43.19058594 10.99882812 -42.13671875 10.39453125 C-41.23912842 9.88253174 -40.34153809 9.37053223 -39.41674805 8.84301758 C-36.72765351 7.15765192 -34.31448848 5.27636921 -31.875 3.25 C-36.7083472 3.16666643 -41.11192563 3.29738513 -45.875 4.25 Z M-13.3828125 16.34765625 C-14.10984375 16.81171875 -14.836875 17.27578125 -15.5859375 17.75390625 C-16.38257813 18.26824219 -17.17921875 18.78257813 -18 19.3125 C-19.73134431 20.41863664 -21.46313645 21.52407255 -23.1953125 22.62890625 C-24.11731445 23.21816895 -25.03931641 23.80743164 -25.98925781 24.41455078 C-30.93141522 27.55796359 -35.90440274 30.6518335 -40.875 33.75 C-48.05408678 38.23055274 -55.22438704 42.72414034 -62.375 47.25 C-69.52561698 51.77586221 -76.6962937 56.26883282 -83.875 60.75 C-91.42587366 65.46462421 -98.97129931 70.18753111 -106.5 74.9375 C-107.263125 75.41832031 -108.02625 75.89914063 -108.8125 76.39453125 C-112.87156576 78.95892297 -116.8926778 81.56789972 -120.875 84.25 C-120.215 84.58 -119.555 84.91 -118.875 85.25 C-116.53719055 84.20399741 -116.53719055 84.20399741 -113.90625 82.59375 C-112.87371094 81.99111328 -111.84117187 81.38847656 -110.77734375 80.76757812 C-109.65457031 80.10177734 -108.53179687 79.43597656 -107.375 78.75 C-106.19971566 78.06100063 -105.02392631 77.37286205 -103.84765625 76.68554688 C-101.40036358 75.25464607 -98.95530353 73.8200355 -96.51171875 72.3828125 C-90.98628646 69.13704251 -85.42923074 65.94614255 -79.875 62.75 C-77.70818132 61.50026352 -75.54151519 60.25026252 -73.375 59 C-69.04166667 56.5 -64.70833333 54 -60.375 51.5 C-59.30113037 50.88044434 -58.22726074 50.26088867 -57.12084961 49.62255859 C-54.96807184 48.38060256 -52.81524037 47.1387396 -50.66235352 45.89697266 C-45.62883085 42.99353087 -40.59581952 40.089215 -35.56478882 37.18145752 C-33.79137392 36.15654597 -32.01778354 35.13193877 -30.24414062 34.10742188 C-28.02504227 32.82547262 -25.80626984 31.54295893 -23.58789062 30.25976562 C-17.71372946 26.867222 -11.8187165 23.51927827 -5.875 20.25 C-6.865 17.28 -6.865 17.28 -7.875 14.25 C-10.38547264 14.25 -11.2791033 14.99366465 -13.3828125 16.34765625 Z M-100.875 22.25 C-105.15892724 24.62368178 -109.30023213 27.19307603 -113.4375 29.8125 C-114.56865062 30.52048076 -115.70024898 31.22774661 -116.83227539 31.93432617 C-119.10144029 33.35283449 -121.36643677 34.77739626 -123.62988281 36.20507812 C-126.6393929 38.10153137 -129.65748617 39.98323611 -132.6796875 41.859375 C-134.39098399 42.92650785 -136.10194459 43.99417963 -137.8125 45.0625 C-138.59246338 45.54726807 -139.37242676 46.03203613 -140.17602539 46.53149414 C-140.89008545 46.98129639 -141.60414551 47.43109863 -142.33984375 47.89453125 C-142.954646 48.27971924 -143.56944824 48.66490723 -144.20288086 49.06176758 C-145.95948993 50.31003978 -147.39671386 51.68649867 -148.875 53.25 C-144.01240431 51.84044389 -139.91979259 49.67954909 -135.625 47.0625 C-134.12445372 46.164101 -132.62309535 45.26705754 -131.12109375 44.37109375 C-130.29464355 43.87722168 -129.46819336 43.38334961 -128.61669922 42.87451172 C-123.33418882 39.74451847 -118.00853387 36.68887949 -112.6875 33.625 C-111.56972168 32.98079102 -110.45194336 32.33658203 -109.30029297 31.67285156 C-101.5019912 27.18079004 -93.69667814 22.70124592 -85.875 18.25 C-91.19016971 16.47827676 -96.03214993 19.91014842 -100.875 22.25 Z M-4.875 30.25 C-11.805 34.54 -18.735 38.83 -25.875 43.25 C-24.885 43.745 -24.885 43.745 -23.875 44.25 C-20.5146418 42.80330628 -17.40661127 40.84364397 -14.25 39 C-13.3528125 38.49597656 -12.455625 37.99195313 -11.53125 37.47265625 C-10.68304688 36.98152344 -9.83484375 36.49039063 -8.9609375 35.984375 C-8.1776709 35.53288086 -7.3944043 35.08138672 -6.58740234 34.61621094 C-6.02230957 34.16536133 -5.4572168 33.71451172 -4.875 33.25 C-4.875 32.26 -4.875 31.27 -4.875 30.25 Z M-175.5234375 50.69287109 C-179.59461176 53.38867149 -183.73718032 55.97064296 -187.875 58.5625 C-193.94146322 62.36299087 -199.93676894 66.25169637 -205.875 70.25 C-205.215 70.58 -204.555 70.91 -203.875 71.25 C-201.53719055 70.20399741 -201.53719055 70.20399741 -198.90625 68.59375 C-197.35490356 67.68846558 -197.35490356 67.68846558 -195.7722168 66.76489258 C-194.65113525 66.09997803 -193.53005371 65.43506348 -192.375 64.75 C-191.21506466 64.06911273 -190.05465761 63.38902847 -188.89379883 62.7097168 C-187.08190355 61.64907588 -185.27050042 60.58765545 -183.46089172 59.52311707 C-179.17239172 57.0012142 -174.86441212 54.51575347 -170.54296875 52.05078125 C-169.36065538 51.37503798 -168.17836339 50.69925728 -166.99609375 50.0234375 C-164.74615746 48.73849095 -162.49490104 47.45585259 -160.2421875 46.17578125 C-158.70498047 45.2940625 -158.70498047 45.2940625 -157.13671875 44.39453125 C-156.23912842 43.88253174 -155.34153809 43.37053223 -154.41674805 42.84301758 C-151.72765351 41.15765192 -149.31448848 39.27636921 -146.875 37.25 C-157.64798736 37.25 -166.96869058 44.95479665 -175.5234375 50.69287109 Z M-27.875 44.25 C-28.865 45.24 -29.855 46.23 -30.875 47.25 C-29.225 46.59 -27.575 45.93 -25.875 45.25 C-26.535 44.92 -27.195 44.59 -27.875 44.25 Z M-8.875 46.25 C-9.205 46.91 -9.535 47.57 -9.875 48.25 C-9.215 48.25 -8.555 48.25 -7.875 48.25 C-8.205 47.59 -8.535 46.93 -8.875 46.25 Z M-32.875 47.25 C-33.205 47.91 -33.535 48.57 -33.875 49.25 C-32.885 48.92 -31.895 48.59 -30.875 48.25 C-31.535 47.92 -32.195 47.59 -32.875 47.25 Z M-150.875 53.25 C-151.205 53.91 -151.535 54.57 -151.875 55.25 C-150.885 54.92 -149.895 54.59 -148.875 54.25 C-149.535 53.92 -150.195 53.59 -150.875 53.25 Z M-248.875 67.25 C-249.865 68.24 -250.855 69.23 -251.875 70.25 C-250.225 69.59 -248.575 68.93 -246.875 68.25 C-247.535 67.92 -248.195 67.59 -248.875 67.25 Z M-209.875 72.25 C-210.205 72.91 -210.535 73.57 -210.875 74.25 C-209.885 73.92 -208.895 73.59 -207.875 73.25 C-208.535 72.92 -209.195 72.59 -209.875 72.25 Z M-16.875 74.25 C-21.33 77.22 -21.33 77.22 -25.875 80.25 C-24.885 80.745 -24.885 80.745 -23.875 81.25 C-21.84585155 80.25632202 -21.84585155 80.25632202 -19.75 78.8125 C-19.02554687 78.33941406 -18.30109375 77.86632812 -17.5546875 77.37890625 C-16.72324219 76.82009766 -16.72324219 76.82009766 -15.875 76.25 C-16.205 75.59 -16.535 74.93 -16.875 74.25 Z M-298.6953125 80.84375 C-304.98974726 83.6275295 -310.4422947 87.85945395 -315.9921875 91.88720703 C-318.59589589 93.77178953 -321.23522971 95.60390956 -323.875 97.4375 C-325.20884924 98.37426583 -326.5424207 99.31142852 -327.875 100.25 C-327.215 100.58 -326.555 100.91 -325.875 101.25 C-323.04605068 99.94160805 -323.04605068 99.94160805 -319.8359375 98.0234375 C-319.23625153 97.6787442 -318.63656555 97.3340509 -318.01870728 96.97891235 C-316.09137992 95.86840751 -314.1708177 94.74671907 -312.25 93.625 C-310.97827066 92.89122285 -309.7061395 92.15814164 -308.43359375 91.42578125 C-302.17510497 87.81363443 -295.96970224 84.13402939 -289.875 80.25 C-293.06255355 78.65622322 -295.39056283 79.80921967 -298.6953125 80.84375 Z M-27.875 81.25 C-28.205 81.91 -28.535 82.57 -28.875 83.25 C-27.885 82.92 -26.895 82.59 -25.875 82.25 C-26.535 81.92 -27.195 81.59 -27.875 81.25 Z M-122.875 85.25 C-123.865 86.24 -124.855 87.23 -125.875 88.25 C-124.225 87.59 -122.575 86.93 -120.875 86.25 C-121.535 85.92 -122.195 85.59 -122.875 85.25 Z M-29.875 96.5625 C-30.95696655 97.2419165 -30.95696655 97.2419165 -32.06079102 97.93505859 C-37.69991395 101.48613741 -43.301262 105.0937478 -48.8894043 108.72436523 C-55.30238643 112.88889108 -61.74365166 117.00843592 -68.1875 121.125 C-76.099991 126.18285188 -84.00093735 131.25749616 -91.875 136.375 C-92.65657471 136.88272949 -93.43814941 137.39045898 -94.2434082 137.91357422 C-99.47870607 141.32221022 -104.68343827 144.7751515 -109.875 148.25 C-109.215 148.58 -108.555 148.91 -107.875 149.25 C-105.53719055 148.20399741 -105.53719055 148.20399741 -102.90625 146.59375 C-101.35744141 145.68979492 -101.35744141 145.68979492 -99.77734375 144.76757812 C-98.65457031 144.10177734 -97.53179687 143.43597656 -96.375 142.75 C-95.19971566 142.06100063 -94.02392631 141.37286205 -92.84765625 140.68554688 C-90.40036358 139.25464607 -87.95530353 137.8200355 -85.51171875 136.3828125 C-79.98628353 133.13704079 -74.42906146 129.94644158 -68.875 126.75 C-66.73299038 125.51316377 -64.59106383 124.27618365 -62.44921875 123.0390625 C-58.47486141 120.74558825 -54.49666552 118.45908122 -50.51321411 116.18145752 C-48.72363873 115.15793591 -46.93493494 114.13290746 -45.14648438 113.10742188 C-42.90341144 111.82186624 -40.6587146 110.53913831 -38.41210938 109.25976562 C-30.35769692 104.67868799 -30.35769692 104.67868799 -22.875 99.25 C-21.82344727 95.57573903 -21.82344727 95.57573903 -21.875 92.25 C-24.47196399 92.25 -27.65506111 95.16275346 -29.875 96.5625 Z M-357.875 98.25 C-360.46535794 99.9996983 -362.77842472 101.89961618 -365.140625 103.9453125 C-368.46379057 106.74626634 -371.95102558 109.24562937 -375.5 111.75 C-376.12890137 112.19553223 -376.75780273 112.64106445 -377.40576172 113.10009766 C-378.89374893 114.15255626 -380.38411312 115.20165303 -381.875 116.25 C-381.215 116.58 -380.555 116.91 -379.875 117.25 C-377.0789175 115.95802197 -377.0789175 115.95802197 -373.90625 114.05859375 C-373.31130737 113.71627213 -372.71636475 113.3739505 -372.10339355 113.02125549 C-370.1894946 111.91747605 -368.28232531 110.80259243 -366.375 109.6875 C-365.12020599 108.96217338 -363.86500184 108.23755581 -362.609375 107.51367188 C-355.65587666 103.49611786 -348.74459646 99.40954465 -341.875 95.25 C-347.68987312 93.56593222 -352.49832898 95.82247316 -357.875 98.25 Z M-414.83886719 116.17480469 C-421.15569716 119.51045447 -426.53691374 124.56235282 -431.875 129.25 C-431.215 129.58 -430.555 129.91 -429.875 130.25 C-427.51909981 129.21767362 -427.51909981 129.21767362 -424.89453125 127.64453125 C-423.89486328 127.07283203 -422.89519531 126.50113281 -421.86523438 125.91210938 C-420.81658203 125.30173828 -419.76792969 124.69136719 -418.6875 124.0625 C-417.14352539 123.17594727 -417.14352539 123.17594727 -415.56835938 122.27148438 C-412.66677376 120.60414146 -409.77078502 118.92738858 -406.875 117.25 C-404.54380501 115.91286735 -402.2097838 114.58085979 -399.875 113.25 C-405.07151094 111.51782969 -409.9689343 114.0256664 -414.83886719 116.17480469 Z M-383.875 117.25 C-384.205 117.91 -384.535 118.57 -384.875 119.25 C-383.885 118.92 -382.895 118.59 -381.875 118.25 C-382.535 117.92 -383.195 117.59 -383.875 117.25 Z M-111.875 149.25 C-112.205 149.91 -112.535 150.57 -112.875 151.25 C-111.885 150.92 -110.895 150.59 -109.875 150.25 C-110.535 149.92 -111.195 149.59 -111.875 149.25 Z M-477.875 152.25 C-478.205 152.91 -478.535 153.57 -478.875 154.25 C-477.885 153.92 -476.895 153.59 -475.875 153.25 C-476.535 152.92 -477.195 152.59 -477.875 152.25 Z M-251.875 153.25 C-252.205 153.91 -252.535 154.57 -252.875 155.25 C-251.885 154.92 -250.895 154.59 -249.875 154.25 C-250.535 153.92 -251.195 153.59 -251.875 153.25 Z M-483.875 156.25 C-483.545 157.24 -483.215 158.23 -482.875 159.25 C-481.555 157.6 -480.235 155.95 -478.875 154.25 C-481.19857511 154.06509993 -481.19857511 154.06509993 -483.875 156.25 Z M-307.875 156.25 C-308.205 156.91 -308.535 157.57 -308.875 158.25 C-307.885 157.92 -306.895 157.59 -305.875 157.25 C-306.535 156.92 -307.195 156.59 -307.875 156.25 Z M-256.875 156.25 C-259.24567351 157.31241718 -259.24567351 157.31241718 -261.9140625 158.94140625 C-262.95675293 159.54911865 -263.99944336 160.15683105 -265.07373047 160.78295898 C-266.20439941 161.45270752 -267.33506836 162.12245605 -268.5 162.8125 C-269.68200415 163.50475703 -270.86446498 164.19623485 -272.04736328 164.88696289 C-275.0828355 166.66156916 -278.11313018 168.44482331 -281.14233398 170.23010254 C-285.67059975 172.89557108 -290.21157564 175.53938269 -294.75 178.1875 C-295.72018066 178.75476807 -296.69036133 179.32203613 -297.68994141 179.90649414 C-305.39058531 184.40325264 -313.12755582 188.83463329 -320.875 193.25 C-332.68435855 199.98093132 -344.44448507 206.7927141 -356.16992188 213.66894531 C-358.81130426 215.21277134 -361.45918448 216.74479149 -364.109375 218.2734375 C-364.90899658 218.7370166 -365.70861816 219.2005957 -366.5324707 219.67822266 C-368.00782831 220.53351617 -369.48539602 221.38501342 -370.96557617 222.23193359 C-374.51574158 224.13322464 -374.51574158 224.13322464 -376.875 227.25 C-374.45252608 228.83392526 -373.10851576 229.26323708 -370.1875 229.09765625 C-366.04931349 228.03870994 -362.97376282 226.0088645 -359.5 223.625 C-357.99095825 222.6190282 -356.48045462 221.61524702 -354.96875 220.61328125 C-354.1540625 220.0713916 -353.339375 219.52950195 -352.5 218.97119141 C-347.7185103 215.83600703 -342.85572888 212.83088435 -338 209.8125 C-335.93601169 208.52634047 -333.87220839 207.239884 -331.80859375 205.953125 C-330.80683105 205.32857422 -329.80506836 204.70402344 -328.77294922 204.06054688 C-324.52751527 201.40813423 -320.29346995 198.73790769 -316.0625 196.0625 C-315.29462158 195.57700684 -314.52674316 195.09151367 -313.7355957 194.59130859 C-311.44843576 193.14467085 -309.16164338 191.6974541 -306.875 190.25 C-303.81298476 188.31173251 -300.75054627 186.37413778 -297.6875 184.4375 C-296.92348877 183.95434326 -296.15947754 183.47118652 -295.37231445 182.97338867 C-290.81016782 180.09210691 -286.23884392 177.22602368 -281.66015625 174.37109375 C-280.59627686 173.70762939 -279.53239746 173.04416504 -278.4362793 172.3605957 C-276.36954691 171.07266877 -274.30204695 169.78597243 -272.23364258 168.50073242 C-266.37663188 164.85151226 -260.58970799 161.1184998 -254.875 157.25 C-255.865 156.755 -255.865 156.755 -256.875 156.25 Z M-41.875 155.25 C-52.29699508 161.78749283 -62.69395229 168.34070615 -72.875 175.25 C-72.215 175.58 -71.555 175.91 -70.875 176.25 C-68.71026206 175.21406741 -66.69079346 174.1274432 -64.625 172.91796875 C-64.01108398 172.56616043 -63.39716797 172.21435211 -62.76464844 171.85188293 C-61.46461654 171.10482517 -60.1668187 170.35386844 -58.87109375 169.59936523 C-56.88770547 168.44489546 -54.89774079 167.30253362 -52.90625 166.16210938 C-51.64542733 165.43559997 -50.38499731 164.70840864 -49.125 163.98046875 C-48.52913086 163.6376738 -47.93326172 163.29487885 -47.31933594 162.94169617 C-44.89855072 161.52844926 -42.86686765 160.24186765 -40.875 158.25 C-41.205 157.26 -41.535 156.27 -41.875 155.25 Z M-316.28125 161.22265625 C-317.40418457 161.86726807 -318.52711914 162.51187988 -319.68408203 163.17602539 C-320.91444103 163.888092 -322.14474558 164.60025272 -323.375 165.3125 C-324.64545729 166.043909 -325.91613079 166.77494258 -327.18701172 167.50561523 C-330.45693185 169.38695711 -333.72391687 171.27333366 -336.9901123 173.16113281 C-339.85903727 174.8184614 -342.73036991 176.47160385 -345.6015625 178.125 C-350.93812752 181.19955422 -356.27184247 184.27901239 -361.60449219 187.36035156 C-367.27697987 190.63782653 -372.95080472 193.91298241 -378.625 197.1875 C-379.70974609 197.81350098 -380.79449219 198.43950195 -381.91210938 199.08447266 C-389.55495153 203.4931684 -397.20656354 207.88596253 -404.875 212.25 C-403.77458081 213.93681738 -403.77458081 213.93681738 -401.875 215.25 C-396.50243202 215.20381747 -392.78156878 212.56299753 -388.5 209.625 C-386.98441521 208.61517004 -385.46740493 207.60747727 -383.94921875 206.6015625 C-383.13372559 206.05918945 -382.31823242 205.51681641 -381.47802734 204.95800781 C-376.80619377 201.89252782 -372.05700543 198.95123995 -367.3125 196 C-366.30050537 195.36908447 -365.28851074 194.73816895 -364.24584961 194.08813477 C-362.16746385 192.7924731 -360.08876663 191.49731093 -358.00976562 190.20263672 C-349.91014665 185.15740677 -341.81875861 180.09901222 -333.73046875 175.03564453 C-330.90567713 173.2691837 -328.07790337 171.50756732 -325.25 169.74609375 C-323.52068512 168.6642994 -321.7915108 167.5822803 -320.0625 166.5 C-319.27383545 166.01055908 -318.4851709 165.52111816 -317.67260742 165.0168457 C-316.58749878 164.33561646 -316.58749878 164.33561646 -315.48046875 163.640625 C-314.85293701 163.24907227 -314.22540527 162.85751953 -313.57885742 162.45410156 C-311.80664017 161.20169069 -310.36213866 159.82572325 -308.875 158.25 C-311.87139237 158.25 -313.69499365 159.73163015 -316.28125 161.22265625 Z M-461.875 159.25 C-464.90362712 160.50537876 -467.67754209 162.27655683 -470.5 163.9375 C-471.30179687 164.38544922 -472.10359375 164.83339844 -472.9296875 165.29492188 C-473.68765625 165.73771484 -474.445625 166.18050781 -475.2265625 166.63671875 C-475.92604004 167.04108154 -476.62551758 167.44544434 -477.34619141 167.86206055 C-477.85069824 168.32008057 -478.35520508 168.77810059 -478.875 169.25 C-478.875 170.57 -478.875 171.89 -478.875 173.25 C-472.32241308 169.17872357 -465.95366469 165.00494402 -459.875 160.25 C-460.535 159.92 -461.195 159.59 -461.875 159.25 Z M-446.875 166.25 C-449.44538209 167.44570391 -449.44538209 167.44570391 -452.3203125 169.21484375 C-453.39667969 169.84970703 -454.47304688 170.48457031 -455.58203125 171.13867188 C-456.70996094 171.81478516 -457.83789062 172.49089844 -459 173.1875 C-460.13566406 173.85974609 -461.27132812 174.53199219 -462.44140625 175.22460938 C-465.25693137 176.89263056 -468.06780116 178.56801635 -470.875 180.25 C-468.895 181.24 -468.895 181.24 -466.875 182.25 C-459.46759823 177.34991463 -452.12402339 172.38205196 -444.875 167.25 C-445.535 166.92 -446.195 166.59 -446.875 166.25 Z M-382.875 169.25 C-383.205 169.91 -383.535 170.57 -383.875 171.25 C-382.885 170.92 -381.895 170.59 -380.875 170.25 C-381.535 169.92 -382.195 169.59 -382.875 169.25 Z M-387.875 172.25 C-390.32794938 173.36197266 -390.32794938 173.36197266 -393.08984375 175.046875 C-394.16057129 175.67134521 -395.23129883 176.29581543 -396.33447266 176.93920898 C-397.49389527 177.626004 -398.65323613 178.31293706 -399.8125 179 C-400.98700667 179.68836818 -402.16197686 180.37594608 -403.33740234 181.06274414 C-405.71235554 182.45164253 -408.08489875 183.84452263 -410.45556641 185.24072266 C-415.28943365 188.08112873 -420.14427868 190.88468473 -425 193.6875 C-426.54445417 194.58171467 -428.08874521 195.47621121 -429.6328125 196.37109375 C-430.70273437 196.99113281 -431.77265625 197.61117187 -432.875 198.25 C-432.545 198.91 -432.215 199.57 -431.875 200.25 C-426.80628356 199.71748893 -423.21466418 197.27938746 -419 194.625 C-418.2363916 194.15151123 -417.4727832 193.67802246 -416.68603516 193.19018555 C-406.30779665 186.7133462 -396.09118111 179.97836213 -385.875 173.25 C-386.535 172.92 -387.195 172.59 -387.875 172.25 Z M-52.78515625 177.3203125 C-53.77580078 177.97 -54.76644531 178.6196875 -55.78710938 179.2890625 C-56.82673828 179.97742188 -57.86636719 180.66578125 -58.9375 181.375 C-59.95005859 182.04015625 -60.96261719 182.7053125 -62.00585938 183.390625 C-67.97888459 187.31872669 -73.93194571 191.27672399 -79.875 195.25 C-79.215 195.58 -78.555 195.91 -77.875 196.25 C-75.7219523 195.21371556 -73.71421408 194.12693708 -71.66015625 192.91796875 C-71.04861191 192.56616043 -70.43706757 192.21435211 -69.80699158 191.85188293 C-67.84606426 190.72122734 -65.89188588 189.57941804 -63.9375 188.4375 C-62.62345884 187.67832295 -61.30901041 186.91985037 -59.99414062 186.16210938 C-51.7095362 182.26052425 -51.7095362 182.26052425 -46.1875 176.125 C-46.084375 175.50625 -45.98125 174.8875 -45.875 174.25 C-48.81676432 174.25 -50.34026743 175.70944322 -52.78515625 177.3203125 Z M-74.875 176.25 C-75.205 176.91 -75.535 177.57 -75.875 178.25 C-74.885 177.92 -73.895 177.59 -72.875 177.25 C-73.535 176.92 -74.195 176.59 -74.875 176.25 Z M-369.875 177.25 C-370.865 178.24 -371.855 179.23 -372.875 180.25 C-371.225 179.59 -369.575 178.93 -367.875 178.25 C-368.535 177.92 -369.195 177.59 -369.875 177.25 Z M-374.875 180.25 C-377.58882582 181.49243665 -377.58882582 181.49243665 -380.66796875 183.3359375 C-381.2468837 183.66860626 -381.82579865 184.00127502 -382.42225647 184.34402466 C-384.30697605 185.42987276 -386.18474061 186.52716695 -388.0625 187.625 C-389.34244116 188.36580876 -390.62271464 189.10604366 -391.90332031 189.84570312 C-400.61533427 194.88798609 -409.29005935 199.99391389 -417.875 205.25 C-417.545 205.91 -417.215 206.57 -416.875 207.25 C-413.80517482 206.61989606 -411.49292516 205.5963877 -408.8125 203.984375 C-408.02456055 203.51225586 -407.23662109 203.04013672 -406.42480469 202.55371094 C-405.58336914 202.04098633 -404.74193359 201.52826172 -403.875 201 C-402.57030762 200.21157715 -402.57030762 200.21157715 -401.23925781 199.40722656 C-391.64603261 193.57011535 -382.24445564 187.43805848 -372.875 181.25 C-373.535 180.92 -374.195 180.59 -374.875 180.25 Z M-453.875 185.25 C-454.205 185.91 -454.535 186.57 -454.875 187.25 C-453.885 186.92 -452.895 186.59 -451.875 186.25 C-452.535 185.92 -453.195 185.59 -453.875 185.25 Z M-203.875 195.25 C-204.205 195.91 -204.535 196.57 -204.875 197.25 C-203.885 196.92 -202.895 196.59 -201.875 196.25 C-202.535 195.92 -203.195 195.59 -203.875 195.25 Z M-81.875 196.25 C-82.205 196.91 -82.535 197.57 -82.875 198.25 C-81.885 197.92 -80.895 197.59 -79.875 197.25 C-80.535 196.92 -81.195 196.59 -81.875 196.25 Z M-206.875 197.25 C-209.40796251 198.39362809 -209.40796251 198.39362809 -212.28125 200.125 C-213.40418457 200.77283447 -214.52711914 201.42066895 -215.68408203 202.08813477 C-216.91446145 202.80863112 -218.14476544 203.52925632 -219.375 204.25 C-220.64522983 204.98635651 -221.91590652 205.72194268 -223.18701172 206.45678711 C-225.80776205 207.97340958 -228.42591399 209.49437589 -231.04199219 211.01904297 C-235.62500802 213.68904671 -240.22189378 216.33479582 -244.81884766 218.98071289 C-248.02678718 220.82792473 -251.23246025 222.679012 -254.4375 224.53125 C-258.76908507 227.0342949 -263.10244603 229.53421773 -267.4375 232.03125 C-281.94511673 240.38927311 -296.42207192 248.79777631 -310.875 257.25 C-309.16088492 259.32498141 -308.01967664 260.20119412 -305.44042969 261.07128906 C-302.39031198 261.28376395 -301.35037303 260.77899754 -298.828125 259.109375 C-298.07515137 258.62178711 -297.32217773 258.13419922 -296.54638672 257.63183594 C-295.34780029 256.82407715 -295.34780029 256.82407715 -294.125 256 C-293.2808252 255.44860352 -292.43665039 254.89720703 -291.56689453 254.32910156 C-289.82543936 253.19031974 -288.08796988 252.04542015 -286.35449219 250.89453125 C-283.49783838 248.99984633 -280.62086353 247.13863202 -277.73925781 245.28222656 C-275.68522382 243.95824687 -273.63547428 242.62780412 -271.5859375 241.296875 C-265.86508135 237.58942091 -260.11897405 233.92149018 -254.375 230.25 C-244.5204916 223.94897331 -234.6838438 217.62185264 -224.875 211.25 C-223.99779297 210.68023437 -223.12058594 210.11046875 -222.21679688 209.5234375 C-216.43499962 205.76746693 -210.65445492 202.00957372 -204.875 198.25 C-205.865 197.755 -205.865 197.755 -206.875 197.25 Z M-61.84399414 211.8203125 C-62.68479019 212.38089355 -63.52558624 212.94147461 -64.39186096 213.51904297 C-65.30539841 214.13150879 -66.21893585 214.74397461 -67.16015625 215.375 C-68.09097519 215.99648926 -69.02179413 216.61797852 -69.9808197 217.25830078 C-72.96782356 219.253383 -75.95267747 221.25165617 -78.9375 223.25 C-80.95623992 224.59916827 -82.97511828 225.94812941 -84.99414062 227.296875 C-89.95603901 230.61217713 -94.91617363 233.93010494 -99.875 237.25 C-99.215 237.58 -98.555 237.91 -97.875 238.25 C-95.33978132 237.08848807 -95.33978132 237.08848807 -92.484375 235.34765625 C-91.38794678 234.70820068 -90.29151855 234.06874512 -89.16186523 233.40991211 C-87.9825943 232.71130765 -86.80364454 232.01216076 -85.625 231.3125 C-83.84506563 230.26351381 -82.06413066 229.21624549 -80.28294373 228.16938782 C-79.10932906 227.47950952 -77.93628148 226.78866558 -76.7638092 226.09684753 C-73.5693997 224.2181569 -70.35449166 222.40386877 -67.07421875 220.6796875 C-66.4203418 220.33156006 -65.76646484 219.98343262 -65.09277344 219.62475586 C-63.44253669 218.75596007 -61.78219738 217.90642755 -60.12109375 217.05859375 C-57.56514426 215.36769751 -57.56514426 215.36769751 -57.03515625 212.03515625 C-56.98230469 211.11605469 -56.92945313 210.19695312 -56.875 209.25 C-58.76159757 209.25 -60.33044845 210.80827001 -61.84399414 211.8203125 Z M-319.875 211.25 C-320.205 211.91 -320.535 212.57 -320.875 213.25 C-319.885 212.92 -318.895 212.59 -317.875 212.25 C-318.535 211.92 -319.195 211.59 -319.875 211.25 Z M-324.875 214.25 C-325.205 214.91 -325.535 215.57 -325.875 216.25 C-324.885 215.92 -323.895 215.59 -322.875 215.25 C-323.535 214.92 -324.195 214.59 -324.875 214.25 Z M-335.65234375 220.42578125 C-336.219496 220.7516069 -336.78664825 221.07743256 -337.37098694 221.41313171 C-338.57172435 222.10457295 -339.77119178 222.79822353 -340.96948242 223.49389648 C-342.7981014 224.55415152 -344.63207282 225.60465028 -346.46679688 226.65429688 C-347.63314991 227.32754079 -348.79917641 228.0013508 -349.96484375 228.67578125 C-351.02566162 229.28848877 -352.08647949 229.90119629 -353.17944336 230.5324707 C-355.43011468 231.96653218 -357.11857261 233.26676553 -358.875 235.25 C-358.215 235.58 -357.555 235.91 -356.875 236.25 C-354.69501149 235.14077562 -352.66447978 233.9832681 -350.58984375 232.69921875 C-349.66541222 232.1382122 -349.66541222 232.1382122 -348.7223053 231.56587219 C-347.41789936 230.77181548 -346.11591013 229.97377742 -344.81616211 229.17211914 C-342.82285078 227.94387795 -340.821411 226.72985423 -338.81835938 225.51757812 C-337.55417904 224.74562373 -336.29049018 223.97286377 -335.02734375 223.19921875 C-334.42631332 222.83455002 -333.8252829 222.46988129 -333.20603943 222.09416199 C-329.9978245 220.20502934 -329.9978245 220.20502934 -327.875 217.25 C-330.97495595 217.25 -332.98409422 218.8915327 -335.65234375 220.42578125 Z M-74.6875 237 C-76.2044043 237.95132813 -76.2044043 237.95132813 -77.75195312 238.921875 C-78.72712891 239.540625 -79.70230469 240.159375 -80.70703125 240.796875 C-82.04858276 241.64523926 -82.04858276 241.64523926 -83.41723633 242.51074219 C-85.85057675 244.23271667 -87.83695676 246.08170476 -89.875 248.25 C-84.32551374 246.13514214 -79.29113778 243.28225972 -74.125 240.375 C-73.15433594 239.84519531 -72.18367188 239.31539062 -71.18359375 238.76953125 C-69.80107422 237.99029297 -69.80107422 237.99029297 -68.390625 237.1953125 C-67.54790039 236.72625488 -66.70517578 236.25719727 -65.83691406 235.77392578 C-63.70924572 234.40260584 -63.70924572 234.40260584 -63.09277344 232.06591797 C-63.0209082 231.46666504 -62.94904297 230.86741211 -62.875 230.25 C-66.51857284 230.25 -71.68445826 235.09258597 -74.6875 237 Z M-296.875 235.25 C-297.205 235.91 -297.535 236.57 -297.875 237.25 C-296.885 236.92 -295.895 236.59 -294.875 236.25 C-295.535 235.92 -296.195 235.59 -296.875 235.25 Z M-338.875 236.25 C-339.205 236.91 -339.535 237.57 -339.875 238.25 C-338.885 237.92 -337.895 237.59 -336.875 237.25 C-337.535 236.92 -338.195 236.59 -338.875 236.25 Z M-301.875 238.25 C-302.205 238.91 -302.535 239.57 -302.875 240.25 C-301.885 239.92 -300.895 239.59 -299.875 239.25 C-300.535 238.92 -301.195 238.59 -301.875 238.25 Z M-343.875 239.25 C-344.535 239.91 -345.195 240.57 -345.875 241.25 C-344.555 240.92 -343.235 240.59 -341.875 240.25 C-342.535 239.92 -343.195 239.59 -343.875 239.25 Z M-306.875 241.25 C-308.76065079 242.05538076 -308.76065079 242.05538076 -310.7890625 243.33984375 C-311.54960937 243.79423828 -312.31015625 244.24863281 -313.09375 244.71679688 C-313.8878125 245.20212891 -314.681875 245.68746094 -315.5 246.1875 C-316.30179688 246.66896484 -317.10359375 247.15042969 -317.9296875 247.64648438 C-319.91588542 248.84056765 -321.89727542 250.04195201 -323.875 251.25 C-321.04351042 252.56848044 -321.04351042 252.56848044 -319.06567383 251.44555664 C-318.41107178 251.02137451 -317.75646973 250.59719238 -317.08203125 250.16015625 C-316.36982422 249.70576172 -315.65761719 249.25136719 -314.92382812 248.78320312 C-314.18583984 248.29787109 -313.44785156 247.81253906 -312.6875 247.3125 C-311.93791016 246.83103516 -311.18832031 246.34957031 -310.41601562 245.85351562 C-308.5628936 244.6613798 -306.71646534 243.46003348 -304.875 242.25 C-305.535 241.92 -306.195 241.59 -306.875 241.25 Z M-91.875 248.25 C-92.205 248.91 -92.535 249.57 -92.875 250.25 C-91.885 249.92 -90.895 249.59 -89.875 249.25 C-90.535 248.92 -91.195 248.59 -91.875 248.25 Z M-227.875 261.25 C-228.205 261.91 -228.535 262.57 -228.875 263.25 C-227.885 262.92 -226.895 262.59 -225.875 262.25 C-226.535 261.92 -227.195 261.59 -227.875 261.25 Z M-230.875 263.25 C-233.6545604 264.52526912 -233.6545604 264.52526912 -236.80859375 266.40625 C-237.4011647 266.74619995 -237.99373566 267.0861499 -238.60426331 267.43640137 C-239.86651672 268.16250499 -241.12654392 268.89248996 -242.38452148 269.62597656 C-244.26939314 270.72486843 -246.16023247 271.8127508 -248.05273438 272.8984375 C-255.45107491 277.16051307 -262.71655081 281.59271794 -269.875 286.25 C-269.545 287.24 -269.215 288.23 -268.875 289.25 C-261.99232164 286.02553475 -255.76938935 282.06600949 -249.4375 277.875 C-247.95926758 276.90433594 -247.95926758 276.90433594 -246.45117188 275.9140625 C-240.57552463 272.05147664 -234.72053223 268.15798357 -228.875 264.25 C-229.535 263.92 -230.195 263.59 -230.875 263.25 Z M-222.875 274.25 C-225.41021868 275.41151193 -225.41021868 275.41151193 -228.265625 277.15234375 C-229.36213379 277.79228271 -230.45864258 278.43222168 -231.58837891 279.09155273 C-232.76732672 279.79007675 -233.94619917 280.48872797 -235.125 281.1875 C-236.31250769 281.88371426 -237.50049618 282.57910908 -238.68896484 283.27368164 C-241.0254245 284.64004113 -243.35974816 286.00993402 -245.69238281 287.3828125 C-249.61100841 289.68180365 -253.54991387 291.94313288 -257.5 294.1875 C-258.56476563 294.79464844 -259.62953125 295.40179688 -260.7265625 296.02734375 C-261.79003906 296.63255859 -261.79003906 296.63255859 -262.875 297.25 C-262.545 298.57 -262.215 299.89 -261.875 301.25 C-255.39771764 297.77227104 -249.20345192 293.97606355 -243.0625 289.9375 C-242.19463867 289.3700708 -241.32677734 288.8026416 -240.43261719 288.21801758 C-233.88820968 283.93322081 -227.36527271 279.6164233 -220.875 275.25 C-221.535 274.92 -222.195 274.59 -222.875 274.25 Z M-200.875 290.25 C-201.205 290.91 -201.535 291.57 -201.875 292.25 C-200.885 291.92 -199.895 291.59 -198.875 291.25 C-199.535 290.92 -200.195 290.59 -200.875 290.25 Z M-203.875 292.25 C-206.50656407 293.44288056 -206.50656407 293.44288056 -209.4921875 295.23046875 C-210.05743134 295.55493484 -210.62267517 295.87940094 -211.20504761 296.21369934 C-213.05806898 297.28037839 -214.90403758 298.35865838 -216.75 299.4375 C-218.0169507 300.17044399 -219.28420488 300.90286363 -220.55175781 301.63476562 C-231.0644848 307.71941372 -241.49760191 313.93748134 -251.875 320.25 C-251.215 321.57 -250.555 322.89 -249.875 324.25 C-243.63666602 321.30620786 -238.03291461 317.84262224 -232.34375 313.953125 C-231.46722778 313.35949158 -230.59070557 312.76585815 -229.68762207 312.15423584 C-226.91364236 310.27401974 -224.14427593 308.38713532 -221.375 306.5 C-219.48467684 305.21700308 -217.59405476 303.93444647 -215.703125 302.65234375 C-211.09028063 299.52331314 -206.48119591 296.38880831 -201.875 293.25 C-202.535 292.92 -203.195 292.59 -203.875 292.25 Z M-95.5625 313.9375 C-96.77473958 314.81640625 -97.98697917 315.6953125 -99.19921875 316.57421875 C-99.79911621 317.01169434 -100.39901367 317.44916992 -101.01708984 317.89990234 C-103.95617548 320.03566366 -106.91604069 322.14188393 -109.875 324.25 C-108.885 324.745 -108.885 324.745 -107.875 325.25 C-104.36017257 323.66256393 -101.11212794 321.55322232 -97.8125 319.5625 C-96.40774414 318.74749023 -96.40774414 318.74749023 -94.97460938 317.91601562 C-94.08451172 317.38298828 -93.19441406 316.84996094 -92.27734375 316.30078125 C-91.45741943 315.81262939 -90.63749512 315.32447754 -89.79272461 314.8215332 C-87.60074699 313.02525568 -87.21869864 312.01563587 -86.875 309.25 C-90.33311145 309.25 -92.85696677 311.95269155 -95.5625 313.9375 Z M-208.875 312.25 C-209.205 312.91 -209.535 313.57 -209.875 314.25 C-208.885 313.92 -207.895 313.59 -206.875 313.25 C-207.535 312.92 -208.195 312.59 -208.875 312.25 Z M-218.01953125 317.64453125 C-218.92973274 318.1665638 -218.92973274 318.1665638 -219.85832214 318.69914246 C-221.80371768 319.81625438 -223.74558703 320.93934731 -225.6875 322.0625 C-226.98480602 322.80832555 -228.2823296 323.5537728 -229.58007812 324.29882812 C-234.70210877 327.24353099 -239.81744507 330.19539035 -244.875 333.25 C-244.545 334.57 -244.215 335.89 -243.875 337.25 C-240.19891734 334.93136988 -236.53502233 332.59386978 -232.875 330.25 C-232.07126953 329.73550293 -231.26753906 329.22100586 -230.43945312 328.69091797 C-227.74843501 326.96502664 -225.06136873 325.23311778 -222.375 323.5 C-221.49038086 322.93321533 -220.60576172 322.36643066 -219.69433594 321.7824707 C-218.85676758 321.24066162 -218.01919922 320.69885254 -217.15625 320.140625 C-216.40408203 319.65625977 -215.65191406 319.17189453 -214.87695312 318.67285156 C-212.99380125 317.33443582 -211.4488342 315.93482568 -209.875 314.25 C-213.08119101 314.25 -215.26849974 316.06016447 -218.01953125 317.64453125 Z M-93.875 329.25 C-94.865 330.24 -95.855 331.23 -96.875 332.25 C-95.555 331.92 -94.235 331.59 -92.875 331.25 C-93.205 330.59 -93.535 329.93 -93.875 329.25 Z M-98.875 332.25 C-99.205 332.91 -99.535 333.57 -99.875 334.25 C-98.885 333.92 -97.895 333.59 -96.875 333.25 C-97.535 332.92 -98.195 332.59 -98.875 332.25 Z M-223.875 360.25 C-224.205 360.91 -224.535 361.57 -224.875 362.25 C-223.885 361.92 -222.895 361.59 -221.875 361.25 C-222.535 360.92 -223.195 360.59 -223.875 360.25 Z M-230.875 364.25 C-230.875 364.91 -230.875 365.57 -230.875 366.25 C-227.14885847 365.13145414 -227.14885847 365.13145414 -224.875 362.25 C-227.33778801 362.25 -228.72724119 363.10452863 -230.875 364.25 Z M-107.25390625 363.65625 C-107.92744141 364.15253906 -108.60097656 364.64882813 -109.29492188 365.16015625 C-110.35549805 365.94712891 -110.35549805 365.94712891 -111.4375 366.75 C-112.14841797 367.27464844 -112.85933594 367.79929687 -113.59179688 368.33984375 C-115.35443821 369.64112258 -117.11541495 370.94459305 -118.875 372.25 C-117.885 372.745 -117.885 372.745 -116.875 373.25 C-114.58854169 372.09933763 -112.4791539 370.90820431 -110.3125 369.5625 C-109.70986328 369.20994141 -109.10722656 368.85738281 -108.48632812 368.49414062 C-105.00490537 366.38568865 -105.00490537 366.38568865 -102.97265625 362.98046875 C-102.94042969 362.40941406 -102.90820312 361.83835937 -102.875 361.25 C-104.64526203 361.25 -105.87178487 362.63417705 -107.25390625 363.65625 Z M-196.07421875 369.171875 C-197.11900391 369.78546875 -198.16378906 370.3990625 -199.24023438 371.03125 C-200.88475586 372.00578125 -200.88475586 372.00578125 -202.5625 373 C-204.71211285 374.26584024 -206.86184933 375.53147056 -209.01171875 376.796875 C-210.02411621 377.39435547 -211.03651367 377.99183594 -212.07958984 378.60742188 C-215.32910216 380.51682964 -218.59575383 382.39222964 -221.875 384.25 C-221.215 385.57 -220.555 386.89 -219.875 388.25 C-213.86124185 384.96827659 -208.29059612 381.18575304 -202.6875 377.25 C-201.79869141 376.63382812 -200.90988281 376.01765625 -199.99414062 375.3828125 C-199.13626953 374.78210938 -198.27839844 374.18140625 -197.39453125 373.5625 C-196.62214111 373.02238281 -195.84975098 372.48226563 -195.05395508 371.92578125 C-192.79567463 370.18899279 -190.84390116 368.30538168 -188.875 366.25 C-191.82402275 366.25 -193.54441796 367.67848408 -196.07421875 369.171875 Z M-120.875 373.25 C-121.205 373.91 -121.535 374.57 -121.875 375.25 C-120.885 374.92 -119.895 374.59 -118.875 374.25 C-119.535 373.92 -120.195 373.59 -120.875 373.25 Z M-113.47265625 384.875 C-114.19130859 385.41640625 -114.90996094 385.9578125 -115.65039062 386.515625 C-116.78250977 387.37414062 -116.78250977 387.37414062 -117.9375 388.25 C-118.69611328 388.82234375 -119.45472656 389.3946875 -120.23632812 389.984375 C-122.11750329 391.40412984 -123.99696809 392.82609142 -125.875 394.25 C-124.885 394.745 -124.885 394.745 -123.875 395.25 C-121.42333283 394.12669068 -119.14915295 392.95290846 -116.8125 391.625 C-116.16216797 391.28082031 -115.51183594 390.93664062 -114.84179688 390.58203125 C-111.76421221 388.84628631 -110.09233281 387.89563304 -108.94140625 384.4765625 C-108.91949219 383.74179687 -108.89757812 383.00703125 -108.875 382.25 C-110.70848139 382.25 -112.06263806 383.80915948 -113.47265625 384.875 Z M-199.875 388.25 C-200.205 388.91 -200.535 389.57 -200.875 390.25 C-199.885 389.92 -198.895 389.59 -197.875 389.25 C-198.535 388.92 -199.195 388.59 -199.875 388.25 Z M-202.875 390.25 C-205.81864483 391.70206628 -205.81864483 391.70206628 -209 393.6875 C-210.09570312 394.34621094 -211.19140625 395.00492187 -212.3203125 395.68359375 C-213.16335938 396.20050781 -214.00640625 396.71742188 -214.875 397.25 C-214.545 398.24 -214.215 399.23 -213.875 400.25 C-209.585 397.28 -205.295 394.31 -200.875 391.25 C-201.535 390.92 -202.195 390.59 -202.875 390.25 Z M-177.875 401.25 C-178.205 401.91 -178.535 402.57 -178.875 403.25 C-177.885 402.92 -176.895 402.59 -175.875 402.25 C-176.535 401.92 -177.195 401.59 -177.875 401.25 Z M-186.3203125 406.3125 C-187.93486328 407.25996094 -187.93486328 407.25996094 -189.58203125 408.2265625 C-190.70996094 408.89429688 -191.83789062 409.56203125 -193 410.25 C-194.13566406 410.91773438 -195.27132813 411.58546875 -196.44140625 412.2734375 C-199.25490536 413.92843697 -202.06596198 415.58744366 -204.875 417.25 C-204.545 418.57 -204.215 419.89 -203.875 421.25 C-199.35932013 419.10417107 -195.44493019 416.25642766 -191.375 413.375 C-190.61574219 412.84519531 -189.85648437 412.31539063 -189.07421875 411.76953125 C-185.37627765 409.15960084 -181.93493694 406.61918588 -178.875 403.25 C-181.89415312 403.25 -183.73414178 404.78802042 -186.3203125 406.3125 Z M-185.9375 423 C-187.06478516 423.63421875 -188.19207031 424.2684375 -189.35351562 424.921875 C-190.95936523 425.85 -190.95936523 425.85 -192.59765625 426.796875 C-194.07890991 427.64523926 -194.07890991 427.64523926 -195.59008789 428.51074219 C-197.98101252 430.04668631 -197.98101252 430.04668631 -198.82983398 432.34082031 C-198.84473877 432.97084961 -198.85964355 433.60087891 -198.875 434.25 C-198.215 434.91 -197.555 435.57 -196.875 436.25 C-193.45453721 433.67166267 -190.03931725 431.08646837 -186.625 428.5 C-185.65691406 427.77039063 -184.68882812 427.04078125 -183.69140625 426.2890625 C-182.75683594 425.58007812 -181.82226562 424.87109375 -180.859375 424.140625 C-180.00053711 423.49125977 -179.14169922 422.84189453 -178.25683594 422.17285156 C-175.96581076 420.32331135 -173.91378867 418.37133072 -171.875 416.25 C-176.71604003 416.25 -181.84584521 420.63374181 -185.9375 423 Z M-124.4375 422.25 C-125.07816406 422.806875 -125.71882813 423.36375 -126.37890625 423.9375 C-126.87261719 424.370625 -127.36632812 424.80375 -127.875 425.25 C-126.885 425.745 -126.885 425.745 -125.875 426.25 C-122.07849245 424.52741031 -122.07849245 424.52741031 -120.0625 421.0625 C-120.000625 420.464375 -119.93875 419.86625 -119.875 419.25 C-121.75324891 419.25 -123.09018837 421.07416439 -124.4375 422.25 Z M-169.875 444.25 C-170.205 444.91 -170.535 445.57 -170.875 446.25 C-169.885 445.92 -168.895 445.59 -167.875 445.25 C-168.535 444.92 -169.195 444.59 -169.875 444.25 Z M-172.875 446.25 C-175.31159526 447.44614677 -177.60502411 448.68812986 -179.9375 450.0625 C-180.58783203 450.43181641 -181.23816406 450.80113281 -181.90820312 451.18164062 C-185.49098984 453.10268468 -185.49098984 453.10268468 -187.875 456.25 C-187.545 456.91 -187.215 457.57 -186.875 458.25 C-182.51852355 456.80049595 -179.55742711 454.57252888 -176.0625 451.625 C-175.08667969 450.80773437 -174.11085938 449.99046875 -173.10546875 449.1484375 C-172.36941406 448.52195312 -171.63335937 447.89546875 -170.875 447.25 C-171.535 446.92 -172.195 446.59 -172.875 446.25 Z M-170 472.75 C-170.72445313 473.2140625 -171.44890625 473.678125 -172.1953125 474.15625 C-172.74960937 474.5171875 -173.30390625 474.878125 -173.875 475.25 C-173.545 476.24 -173.215 477.23 -172.875 478.25 C-168.6007442 476.6669423 -166.60968206 473.74431596 -163.875 470.25 C-166.55050292 470.25 -167.76544641 471.30835252 -170 472.75 Z " fill="#0683DF" transform="translate(499.875,11.75)"/>
<path d="M0 0 C7.70496025 8.15819321 9.76242852 17.31726855 9.83816528 28.29463196 C9.44369061 41.5274575 4.69165816 54.18493879 0.7089386 66.69686508 C-0.50631741 70.53774079 -1.68781716 74.38897751 -2.87207031 78.23950195 C-4.61124751 83.88545112 -6.35944222 89.52844573 -8.11982727 95.16781902 C-11.23425357 105.1467687 -14.28276556 115.14423 -17.2890625 125.15625 C-17.50835356 125.88639502 -17.72764462 126.61654003 -17.95358086 127.36881065 C-18.8414388 130.32577514 -19.72885735 133.28287085 -20.61555386 136.24018383 C-22.88576521 143.81145552 -25.16824695 151.37901194 -27.45145988 158.94637108 C-28.62808641 162.84643501 -29.80404172 166.7467013 -30.97998047 170.64697266 C-31.21625751 171.43062163 -31.45253454 172.21427061 -31.69597149 173.02166653 C-36.00613163 187.31781284 -40.31162737 201.61536506 -44.61767578 215.91275024 C-46.18514766 221.11723004 -47.75272442 226.32167825 -49.3203125 231.52612305 C-53.61611695 245.78845548 -57.91173505 260.050844 -62.20654297 274.31347656 C-62.48326749 275.23244846 -62.75999201 276.15142036 -63.04510212 277.0982399 C-64.16045675 280.80221824 -65.27581045 284.50619686 -66.39114189 288.21018219 C-69.36110954 298.0733075 -72.33152182 307.93629841 -75.3034668 317.79882812 C-75.68734605 319.07276617 -75.68734605 319.07276617 -76.07898045 320.37244034 C-77.08324499 323.70515795 -78.08751272 327.03787459 -79.09185982 330.37056732 C-81.77422419 339.27157655 -84.4541163 348.17330937 -87.12646484 357.07733154 C-88.32172862 361.05888291 -89.51917897 365.03977422 -90.71716309 369.02050781 C-91.22065564 370.69562355 -91.72310184 372.37105435 -92.22424316 374.046875 C-94.51783698 381.7163723 -96.89024278 389.33910015 -99.48326111 396.91331482 C-103.55415474 408.83520299 -106.65865457 420.84967862 -109.53442383 433.10668945 C-114.71583957 455.0608052 -121.2574552 478.41062531 -139.90234375 492.81640625 C-148.14727974 497.54024907 -158.86436066 498.03533156 -167.96484375 496.12890625 C-178.5151904 492.94255995 -187.27452258 486.51042195 -192.7890625 476.921875 C-194.52464401 473.53767036 -196.11662568 470.0881505 -197.72363281 466.64160156 C-199.40138653 463.15659829 -201.22850928 459.75616017 -203.04833984 456.34375 C-209.86726385 443.53710266 -216.0159043 430.46097691 -222.04003906 417.265625 C-224.03694032 412.89215868 -226.04545954 408.52406404 -228.0546875 404.15625 C-228.78135144 402.57609972 -229.50799517 400.99594015 -230.23461914 399.41577148 C-230.59766144 398.6262912 -230.96070374 397.83681091 -231.33474731 397.02340698 C-233.15755255 393.05893801 -234.97950462 389.09407769 -236.80078125 385.12890625 C-237.15190475 384.36449722 -237.50302826 383.6000882 -237.86479187 382.81251526 C-239.97302056 378.22069871 -242.07305694 373.62525021 -244.16796875 369.02734375 C-256.06493267 342.97054276 -268.51311568 317.20019091 -284.3125 293.25 C-284.79662354 292.51394531 -285.28074707 291.77789062 -285.77954102 291.01953125 C-291.02193312 283.24573194 -296.3464156 279.15282326 -304.75 275.125 C-305.71744141 274.65126953 -306.68488281 274.17753906 -307.68164062 273.68945312 C-310.74004266 272.19673208 -313.80591659 270.7206228 -316.875 269.25 C-317.83954102 268.78754883 -318.80408203 268.32509766 -319.79785156 267.84863281 C-323.61805526 266.01988113 -327.43979838 264.19445382 -331.26513672 262.37646484 C-337.84199363 259.24521005 -344.36910269 256.02588742 -350.875 252.75 C-357.94390899 249.19344544 -365.04014201 245.70863732 -372.1875 242.3125 C-383.16240601 237.09694344 -394.08230636 231.7715176 -405 226.4375 C-434.70501095 211.90387531 -434.70501095 211.90387531 -464.5625 197.6875 C-465.86721328 197.07297139 -467.17190264 196.458392 -468.4765625 195.84375 C-470.59064544 194.852318 -472.70964424 193.87121686 -474.8359375 192.90625 C-484.64155217 188.31262871 -491.61927113 182.00861194 -495.84375 171.94140625 C-499.51649866 161.31424 -498.76110627 151.31786865 -493.875 141.25 C-493.53210938 140.52941406 -493.18921875 139.80882812 -492.8359375 139.06640625 C-488.64962182 132.13872901 -481.03966536 129.37631835 -473.9296875 126.19799805 C-472.26419728 125.42956904 -470.62651588 124.60106381 -468.99902344 123.75512695 C-466.01575714 122.31781555 -463.19127614 121.32597975 -460.015625 120.40625 C-455.03226805 118.91884894 -450.09210629 117.33941568 -445.171875 115.65625 C-410.72029278 103.91609819 -375.75912575 94.11546854 -340.66259766 84.50073242 C-328.77943076 81.23667671 -316.9827586 77.81010313 -305.2578125 74.01721191 C-300.93790866 72.62630025 -296.60719114 71.26973213 -292.27734375 69.91015625 C-291.36458176 69.62328949 -290.45181976 69.33642273 -289.51139832 69.04086304 C-265.1685586 61.39533836 -240.76606016 53.97139494 -216.3175354 46.67196655 C-200.25516184 41.87382053 -184.20347775 37.04006668 -168.15151978 32.20721436 C-164.57846717 31.13152322 -161.00520837 30.05652187 -157.43173218 28.98223877 C-138.50067026 23.29086148 -119.5799178 17.56751377 -100.68359375 11.76171875 C-99.8780134 11.51458948 -99.07243305 11.26746021 -98.24244118 11.01284218 C-89.49397545 8.32760551 -80.76670719 5.59478572 -72.07702637 2.72409058 C-49.70205559 -4.65905763 -21.77976896 -13.25725067 0 0 Z M-82.89118958 14.87315369 C-90.33309543 17.87698885 -97.90359262 20.4801142 -105.5 23.0625 C-106.25545105 23.32045349 -107.0109021 23.57840698 -107.78924561 23.84417725 C-122.72947077 28.94071329 -137.76343035 33.68529072 -152.875 38.25 C-154.2806013 38.67479695 -155.68620017 39.09960191 -157.09179688 39.52441406 C-157.81231232 39.74209442 -158.53282776 39.95977478 -159.275177 40.18405151 C-160.74989362 40.62963835 -162.22456393 41.0753785 -163.69918823 41.52127075 C-167.23142415 42.58915603 -170.76432677 43.65464244 -174.29931641 44.71337891 C-182.07356008 47.04937993 -189.78319833 49.51889734 -197.46557617 52.14013672 C-202.09290946 53.64646376 -206.7793021 54.85709321 -211.48828125 56.078125 C-217.18703492 57.57743833 -222.84190968 59.23010294 -228.5 60.875 C-229.54406006 61.17647949 -230.58812012 61.47795898 -231.66381836 61.78857422 C-232.65389893 62.07748535 -233.64397949 62.36639648 -234.6640625 62.6640625 C-235.54787598 62.9213916 -236.43168945 63.1787207 -237.34228516 63.44384766 C-239.91443108 64.22881225 -239.91443108 64.22881225 -242.50952148 65.3046875 C-245.40507132 66.46183158 -248.25361782 67.0238324 -251.3125 67.625 C-259.63400855 69.36292823 -267.71919005 71.69683127 -275.85253906 74.14697266 C-299.91124973 81.39438432 -299.91124973 81.39438432 -308.875 83.375 C-317.22410473 85.2215151 -325.27784869 87.82648997 -333.40722656 90.45898438 C-343.41472254 93.666769 -353.45334699 96.72932558 -363.6875 99.125 C-373.35047569 101.47019349 -382.6324266 104.86570146 -391.98535156 108.21533203 C-395.6447821 109.5256283 -399.30886042 110.82233088 -402.97558594 112.11206055 C-404.58146798 112.6769148 -406.18639953 113.2444841 -407.79003906 113.81567383 C-412.18356363 115.36618928 -416.59667182 116.77245504 -421.0625 118.1015625 C-428.28456968 120.30529784 -435.25963755 123.03228054 -442.25 125.875 C-443.21264267 126.2650119 -443.21264267 126.2650119 -444.19473267 126.66290283 C-447.4874769 127.99783353 -450.7772036 129.33986014 -454.06396484 130.68945312 C-456.52148028 131.69819929 -458.98270208 132.69507914 -461.44775391 133.68554688 C-464.66151068 134.97828297 -467.86315945 136.29705949 -471.0625 137.625 C-472.49505127 138.19468506 -472.49505127 138.19468506 -473.95654297 138.77587891 C-478.10761881 140.53501685 -480.372411 141.50373148 -482.9375 145.3125 C-485.46849085 153.24293799 -485.69378373 162.61243254 -481.875 170.25 C-481.215 170.25 -480.555 170.25 -479.875 170.25 C-479.689375 170.95125 -479.50375 171.6525 -479.3125 172.375 C-477.29065847 176.41868305 -474.4339634 178.54336604 -470.875 181.25 C-469.61623047 182.2090625 -469.61623047 182.2090625 -468.33203125 183.1875 C-463.16716684 187.23666929 -463.16716684 187.23666929 -456.875 188.25 C-456.875 188.91 -456.875 189.57 -456.875 190.25 C-456.27550537 190.50692627 -455.67601074 190.76385254 -455.05834961 191.02856445 C-450.42301432 193.01513672 -445.78767904 195.00170898 -441.15234375 196.98828125 C-440.24218506 197.37822266 -439.33202637 197.76816406 -438.39428711 198.16992188 C-436.88690812 198.81617099 -435.37981063 199.46307819 -433.87329102 200.11132812 C-431.06016666 201.32127408 -428.24099431 202.51160776 -425.41015625 203.6796875 C-424.26417969 204.15664062 -423.11820313 204.63359375 -421.9375 205.125 C-420.79410156 205.59679687 -419.65070313 206.06859375 -418.47265625 206.5546875 C-415.78973112 207.81895407 -413.50030842 209.06905372 -411.03125 210.66015625 C-406.64488864 213.4775804 -402.04717293 215.64732236 -397.3125 217.8125 C-388.20938699 221.99891973 -388.20938699 221.99891973 -384.08984375 224.40625 C-381.39718084 225.95052326 -378.90198079 227.12734877 -376 228.1875 C-371.74718226 229.82667406 -367.89633638 231.83133565 -363.94921875 234.09765625 C-361.01958229 235.72523206 -357.97033111 236.96917333 -354.875 238.25 C-348.54303158 241.05818463 -342.26884331 243.99182869 -336 246.9375 C-335.29536621 247.2670166 -334.59073242 247.5965332 -333.86474609 247.93603516 C-329.64727388 249.91608214 -325.45953201 251.94606616 -321.2890625 254.0234375 C-320.34788574 254.48661377 -319.40670898 254.94979004 -318.43701172 255.42700195 C-316.59188193 256.33611044 -314.75210866 257.25618958 -312.91845703 258.18823242 C-312.07395996 258.60177979 -311.22946289 259.01532715 -310.359375 259.44140625 C-309.61397461 259.81467041 -308.86857422 260.18793457 -308.10058594 260.57250977 C-304.58893289 261.64149147 -302.06248602 260.873069 -298.86816406 259.19702148 C-297.88928223 258.54068726 -297.88928223 258.54068726 -296.890625 257.87109375 C-296.13305908 257.37013184 -295.37549316 256.86916992 -294.5949707 256.35302734 C-293.77988037 255.80340332 -292.96479004 255.2537793 -292.125 254.6875 C-290.33274067 253.50023047 -288.53973631 252.31408506 -286.74609375 251.12890625 C-285.32079346 250.18362061 -285.32079346 250.18362061 -283.86669922 249.21923828 C-278.67432241 245.80143909 -273.42896958 242.46681512 -268.1875 239.125 C-260.58178852 234.26630468 -252.98674003 229.39252435 -245.41650391 224.47875977 C-241.18733424 221.73710172 -236.94663265 219.01410267 -232.69921875 216.30078125 C-231.60351562 215.60082031 -230.5078125 214.90085938 -229.37890625 214.1796875 C-227.23766684 212.8127243 -225.09578543 211.44676597 -222.953125 210.08203125 C-219.92138167 208.1467099 -216.89619475 206.20174528 -213.875 204.25 C-212.28969482 203.22737061 -212.28969482 203.22737061 -210.67236328 202.18408203 C-205.20798794 198.60858477 -200.059721 195.05345036 -195.375 190.5 C-194.79097412 189.94562256 -194.20694824 189.39124512 -193.60522461 188.82006836 C-185.17815318 180.74140298 -176.98483701 172.40928562 -168.7734375 164.11230469 C-163.53584762 158.82995753 -158.3205658 153.62156656 -152.64819336 148.80053711 C-149.39185038 145.95308643 -146.40215541 142.83679795 -143.375 139.75 C-139.07050872 135.40391689 -134.78032966 131.13308519 -130.09765625 127.19140625 C-128.12380807 125.46732445 -126.21374863 123.70141112 -124.30859375 121.90234375 C-123.65310547 121.28367432 -122.99761719 120.66500488 -122.32226562 120.02758789 C-121.01695778 118.79189012 -119.71468963 117.55297059 -118.41601562 116.31030273 C-114.44863768 112.56037966 -110.38628657 109.32719676 -105.875 106.25 C-109.94733796 111.93412844 -114.35107855 117.08147115 -119.1875 122.125 C-120.52687284 123.53566963 -121.8654186 124.94712502 -123.203125 126.359375 C-123.84056641 127.03162109 -124.47800781 127.70386719 -125.13476562 128.39648438 C-127.2815726 130.68303861 -129.36452234 133.02146898 -131.4375 135.375 C-135.67854748 140.13913682 -140.1839138 144.61856158 -144.74047852 149.07861328 C-147.58404591 151.87942332 -150.3069118 154.7162823 -152.88960266 157.76042175 C-157.6969189 163.27898451 -162.89364466 168.40865344 -168.07104492 173.57543945 C-169.18893217 174.69468425 -170.30660712 175.81414111 -171.42408752 176.93379211 C-174.43804886 179.95228361 -177.45512993 182.96763814 -180.47294784 185.98227334 C-183.63827907 189.14506056 -186.8011559 192.31030078 -189.96443176 195.47514343 C-195.27095984 200.7834862 -200.57958277 206.08972713 -205.8894043 211.39477539 C-212.02560224 217.52552084 -218.15817439 223.6598755 -224.28889769 229.79609519 C-229.56195103 235.07368627 -234.83695022 240.34932649 -240.11358148 245.62334031 C-243.26132443 248.76952557 -246.4083909 251.91637951 -249.5537014 255.06499672 C-252.50716431 258.0213483 -255.46306284 260.97524281 -258.42085838 263.92725945 C-259.50530636 265.01038567 -260.58890518 266.09436286 -261.6715889 267.17925262 C-263.149826 268.66022387 -264.63111155 270.13807802 -266.11320496 271.6151886 C-266.94110126 272.44270787 -267.76899755 273.27022715 -268.62198162 274.12282276 C-270.61998591 276.00922959 -272.63816425 277.65970628 -274.875 279.25 C-273.9595629 281.78505659 -273.11028701 283.94151259 -271.46875 286.09375 C-269.71987151 288.45987972 -268.47448617 290.85646083 -267.1875 293.5 C-266.75050781 294.39203125 -266.31351563 295.2840625 -265.86328125 296.203125 C-265.53714844 296.87859375 -265.21101562 297.5540625 -264.875 298.25 C-264.215 298.25 -263.555 298.25 -262.875 298.25 C-262.524375 299.466875 -262.17375 300.68375 -261.8125 301.9375 C-260.02191119 307.3518995 -257.3260529 312.14577165 -254.5703125 317.12109375 C-252.8244255 320.34334141 -251.33406032 323.59699925 -249.890625 326.9609375 C-247.2047531 333.01447955 -244.08463633 338.8805822 -241.07421875 344.77734375 C-238.10672027 350.61551406 -235.3176054 356.43175146 -232.96875 362.546875 C-231.54609554 366.06286389 -229.97334432 369.49844638 -228.375 372.9375 C-228.09011719 373.5555249 -227.80523437 374.1735498 -227.51171875 374.81030273 C-226.04976318 377.93156119 -224.50143747 380.95110038 -222.765625 383.9296875 C-221.27970061 386.53926545 -220.13335144 388.88366563 -219.125 391.6875 C-216.24874055 399.12727345 -212.49167617 406.15079736 -208.875 413.25 C-204.56864474 421.75456005 -200.41608136 430.22078794 -197 439.125 C-195.15748129 443.78167814 -192.89571452 448.09586692 -190.44140625 452.45703125 C-189.40004841 454.31381643 -188.38663938 456.18656426 -187.40234375 458.07421875 C-184.11798576 464.35391124 -180.36873478 469.78225374 -175.875 475.25 C-175.215 476.1575 -174.555 477.065 -173.875 478 C-171.21698264 480.99026953 -168.21875791 483.08406698 -164.875 485.25 C-164.235625 485.683125 -163.59625 486.11625 -162.9375 486.5625 C-158.07279206 488.18406931 -153.51141619 487.81126997 -148.875 485.8125 C-142.01670539 482.00533646 -135.68465383 474.56336364 -132.875 467.25 C-132.0389521 464.05744455 -131.32316258 460.86647518 -130.68359375 457.62890625 C-129.93221911 454.489104 -128.8873195 451.60925452 -127.72045898 448.60522461 C-125.91683757 443.58081348 -124.6108576 438.39207775 -123.1875 433.25 C-120.26571093 422.82482105 -117.04363817 412.5559369 -113.53564453 402.31469727 C-111.44516714 396.15077835 -109.76483917 390.0918319 -108.44921875 383.71484375 C-107.67129005 380.37557157 -106.22386018 377.39734042 -104.875 374.25 C-104.40985657 372.31895 -103.97620499 370.38021992 -103.5625 368.4375 C-102.19483561 362.18634286 -100.28211744 356.24714558 -98.21435547 350.20385742 C-95.51638938 342.28954514 -93.19144131 334.28255188 -90.875 326.25 C-89.88850651 322.91251736 -88.88593917 319.58015257 -87.875 316.25 C-87.60300781 315.3528125 -87.33101563 314.455625 -87.05078125 313.53125 C-85.4357055 308.24306948 -83.78828955 302.96760622 -82.09765625 297.703125 C-81.78344727 296.72311523 -81.46923828 295.74310547 -81.14550781 294.73339844 C-80.51578273 292.77232796 -79.88369047 290.81201574 -79.24902344 288.85253906 C-78.95672852 287.94213867 -78.66443359 287.03173828 -78.36328125 286.09375 C-78.10071533 285.28099609 -77.83814941 284.46824219 -77.56762695 283.63085938 C-76.84012443 281.26157497 -76.84012443 281.26157497 -76.40014648 278.8347168 C-75.78932892 275.82833578 -74.91012821 272.97567876 -73.984375 270.05078125 C-73.60732422 268.85130859 -73.23027344 267.65183594 -72.84179688 266.41601562 C-72.64320068 265.78735596 -72.44460449 265.15869629 -72.23999023 264.51098633 C-69.48866036 255.79389075 -66.74346568 247.08045641 -64.375 238.25 C-61.57856796 227.86022734 -58.29532488 217.61945402 -55.0859375 207.3515625 C-52.9524944 200.52052953 -50.88053784 193.67271966 -48.83666992 186.81445312 C-47.4991112 182.32667232 -46.13886902 177.84726549 -44.75 173.375 C-43.36637334 168.91409579 -42.07358134 164.43456366 -40.8125 159.9375 C-39.7532092 156.18636435 -38.66455743 152.50735601 -37.25 148.875 C-36.0712314 145.76733732 -35.25891106 142.74533324 -34.47314453 139.52539062 C-33.37688394 135.35512584 -31.97244837 131.28196861 -30.625 127.1875 C-27.72672688 118.26997043 -25.21918216 109.30257628 -23.00488281 100.19116211 C-21.65240902 94.75035044 -19.96471454 89.6608672 -17.75488281 84.50512695 C-16.59682728 81.53704733 -15.98703878 78.55886731 -15.36279297 75.44238281 C-14.87760409 73.26170406 -14.23941595 71.21918373 -13.5078125 69.109375 C-11.81674468 64.12940822 -10.30501031 59.10497091 -8.8125 54.0625 C-8.30167146 52.33957956 -7.78997408 50.61691645 -7.27734375 48.89453125 C-6.91854126 47.68204712 -6.91854126 47.68204712 -6.55249023 46.44506836 C-5.99857972 44.65039829 -5.36907389 42.87921371 -4.71875 41.1171875 C-2.03419327 31.99466603 -2.93876194 21.79802186 -7.390625 13.45703125 C-10.95633828 8.15537861 -15.78344376 5.15586412 -21.875 3.25 C-24.74354571 2.86517824 -27.54745225 2.86819879 -30.4375 2.9375 C-31.62593506 2.95659424 -31.62593506 2.95659424 -32.83837891 2.97607422 C-50.50179601 3.40671566 -66.62934749 8.2606014 -82.89118958 14.87315369 Z " fill="#252628" transform="translate(499.875,11.75)"/>
<path d="M0 0 C0.99 0.495 0.99 0.495 2 1 C1.07736359 1.9204158 0.15472717 2.8408316 -0.79586792 3.78913879 C-9.48038278 12.45340296 -18.16227192 21.12029045 -26.84158134 29.78976917 C-31.30403419 34.24699811 -35.76741471 38.70328985 -40.23291016 43.1574707 C-44.5403831 47.45409736 -48.84542571 51.75314516 -53.14877701 56.05389977 C-54.79298268 57.69625435 -56.43806985 59.33772692 -58.0840416 60.97831154 C-60.38501096 63.27204745 -62.68285774 65.56886778 -64.97998047 67.86645508 C-65.66474457 68.5476239 -66.34950867 69.22879272 -67.05502319 69.93060303 C-67.99311829 70.87076012 -67.99311829 70.87076012 -68.95016479 71.82991028 C-69.49402266 72.37284635 -70.03788052 72.91578241 -70.59821892 73.47517109 C-72.21520601 75.15516166 -72.21520601 75.15516166 -74 78 C-79.85014103 76.40799441 -84.70518486 73.44263127 -89.875 70.375 C-90.75414062 69.859375 -91.63328125 69.34375 -92.5390625 68.8125 C-94.6957056 67.54664427 -96.84917988 66.27571593 -99 65 C-95.72179941 61.37498725 -91.95969686 58.94220781 -87.8125 56.4375 C-86.35863888 55.54416564 -84.90553686 54.64959492 -83.453125 53.75390625 C-82.70998047 53.2964502 -81.96683594 52.83899414 -81.20117188 52.36767578 C-77.79170598 50.24923879 -74.42636336 48.06488117 -71.0625 45.875 C-63.89571112 41.21738983 -56.70196332 36.60302209 -49.5 32 C-42.38660267 27.45169821 -35.2759537 22.89959925 -28.1875 18.3125 C-27.53579834 17.89194336 -26.88409668 17.47138672 -26.21264648 17.03808594 C-22.31850654 14.52017861 -18.4467794 11.9710545 -14.5859375 9.40234375 C-13.6678833 8.79543701 -12.7498291 8.18853027 -11.80395508 7.56323242 C-10.00509599 6.37344469 -8.21049266 5.17719218 -6.4206543 3.97387695 C-5.61281494 3.44109131 -4.80497559 2.90830566 -3.97265625 2.359375 C-3.25343994 1.87952148 -2.53422363 1.39966797 -1.79321289 0.90527344 C-1.20145264 0.6065332 -0.60969238 0.30779297 0 0 Z " fill="#0782DE" transform="translate(295,209)"/>
<path d="M0 0 C-5.2734375 3.22265625 -5.2734375 3.22265625 -7 4 C-7.66 3.67 -8.32 3.34 -9 3 C-9 2.34 -9 1.68 -9 1 C-3.375 -1.125 -3.375 -1.125 0 0 Z " fill="#0978CD" transform="translate(399,35)"/>
</svg>
