<?xml version="1.0" encoding="UTF-8"?>
<svg version="1.1" xmlns="http://www.w3.org/2000/svg" width="512" height="512">
<path d="M0 0 C1.13573456 -0.0065712 2.27146912 -0.0131424 3.44161987 -0.01991272 C7.19187492 -0.03958781 10.94209005 -0.05129462 14.69238281 -0.0612793 C15.97624123 -0.06535482 17.26009964 -0.06943035 18.58286285 -0.07362938 C24.67720723 -0.09231937 30.77153174 -0.1068917 36.86589885 -0.11524135 C43.87618403 -0.12500749 50.88615295 -0.15132165 57.89632678 -0.19174224 C63.98852873 -0.22565219 70.08059865 -0.23739523 76.17288971 -0.24144554 C78.75477495 -0.24630751 81.33665691 -0.25791027 83.91847992 -0.27648354 C87.53705363 -0.30090009 91.15480617 -0.2999049 94.7734375 -0.29296875 C95.83144562 -0.30577881 96.88945374 -0.31858887 97.97952271 -0.33178711 C109.15605348 -0.25401958 117.98174623 3.76420433 126.20800781 11.30200195 C134.85660074 20.33327598 136.09758393 31.01001713 137.02832031 43.0090332 C139.7661124 77.48971658 153.36589711 107.83875084 179.68847656 130.80981445 C202.7307823 149.25583463 228.64025768 157.54536557 257.86035156 159.30004883 C270.39728985 160.19324533 278.82962879 163.77533722 287.39550781 173.05200195 C293.50894002 180.33787321 295.76203629 187.01420542 295.79267883 196.45304871 C295.79635552 197.18767832 295.80003221 197.92230793 295.80382031 198.67919904 C295.81483779 201.14225958 295.81869784 203.6052779 295.82250977 206.06835938 C295.82877633 207.83444858 295.8354233 209.60053647 295.84242249 211.36662292 C295.86345817 217.17189619 295.87383058 222.97716969 295.88378906 228.7824707 C295.88783806 230.78554104 295.89195503 232.78861123 295.89613914 234.79168129 C295.91519681 244.21193252 295.92942158 253.63217593 295.93775111 263.05244273 C295.94749893 273.89605231 295.97375161 284.73945641 296.01425201 295.58299369 C296.04453046 303.98072446 296.05923141 312.37839679 296.06253213 320.77618104 C296.06487102 325.78294482 296.07367772 330.78948929 296.0989933 335.79619408 C296.12248228 340.51832907 296.12642469 345.24010364 296.11623192 349.96228218 C296.11574132 351.68220604 296.12191877 353.4021489 296.13578796 355.12201691 C296.24586939 369.60008442 294.56946901 383.86871336 287.95800781 396.98950195 C287.6205957 397.68398438 287.28318359 398.3784668 286.93554688 399.09399414 C283.59468804 405.72374968 279.37246869 411.45489141 274.64550781 417.17700195 C274.00226563 418.02004883 273.35902344 418.8630957 272.69628906 419.73168945 C264.40109252 429.62272381 252.46138297 436.63946434 240.83300781 441.92700195 C240.23012939 442.20882324 239.62725098 442.49064453 239.00610352 442.78100586 C225.1940792 448.78935302 210.96454322 448.61519131 196.21264648 448.58105469 C193.97217978 448.5867667 191.73171599 448.59373415 189.49125671 448.60185242 C183.44150807 448.61970818 177.39190507 448.61862959 171.34213805 448.61291003 C166.27544318 448.60980682 161.20877583 448.61592328 156.1420849 448.62194878 C143.49793465 448.63676751 130.85387152 448.63320169 118.20972786 448.62108547 C107.26774158 448.61115966 96.32592457 448.62408929 85.38396438 448.64801966 C74.10703088 448.67249387 62.83017386 448.68159981 51.55320722 448.67536694 C45.2387741 448.67200997 38.92448071 448.67432817 32.61006737 448.69161797 C26.66812152 448.70717956 20.72649665 448.70302986 14.78456306 448.68431282 C12.61635267 448.68065217 10.44811799 448.68366075 8.27993011 448.69419861 C-7.51782263 448.76505793 -22.79314615 447.73329387 -37.16699219 440.48950195 C-38.20980347 439.98229614 -38.20980347 439.98229614 -39.27368164 439.46484375 C-45.90056937 436.12277979 -51.65063125 431.92595643 -57.35449219 427.17700195 C-58.83755859 426.00331055 -58.83755859 426.00331055 -60.35058594 424.8059082 C-75.47938251 411.56575203 -85.79825681 391.03128968 -88.35449219 371.17700195 C-88.50558194 367.25426557 -88.50231232 363.33377528 -88.50166321 359.40849304 C-88.5053399 358.21479672 -88.50901658 357.02110039 -88.51280469 355.79123145 C-88.52190404 352.4855314 -88.52653518 349.17988088 -88.529194 345.87417305 C-88.5331088 342.30540507 -88.54268645 338.73665131 -88.55140686 335.16789246 C-88.57114055 326.55177352 -88.58123462 317.93565346 -88.59013465 309.31951758 C-88.59452358 305.25573874 -88.5998889 301.19196119 -88.60512352 297.12818336 C-88.62213449 283.60762522 -88.63662598 270.08706786 -88.64387226 256.56650066 C-88.64578197 253.06028429 -88.64770233 249.55406791 -88.6496582 246.04785156 C-88.65014194 245.17646311 -88.65062568 244.30507465 -88.65112408 243.40728048 C-88.65941438 229.30914507 -88.68473495 215.21109477 -88.71723888 201.11299648 C-88.75038347 186.61805369 -88.76832778 172.12315404 -88.7715165 157.62817317 C-88.77367502 149.49826929 -88.7823264 141.36848945 -88.80797768 133.23862267 C-88.82978623 126.31088305 -88.83768566 119.38329762 -88.82801089 112.45552757 C-88.82349503 108.92726997 -88.82519159 105.39932979 -88.84477234 101.87111664 C-88.9265998 84.2402665 -88.76526404 67.39535937 -80.60449219 51.30200195 C-80.26305176 50.60349121 -79.92161133 49.90498047 -79.56982422 49.18530273 C-76.46621643 43.02496086 -72.69874256 37.53368356 -68.35449219 32.17700195 C-67.68933594 31.26821289 -67.68933594 31.26821289 -67.01074219 30.34106445 C-51.56290261 10.27771183 -24.50392438 0.06180319 0 0 Z M13.64550781 212.17700195 C1.59723271 226.45458367 -0.79346504 243.10364367 0.64550781 261.17700195 C2.3316111 272.16362021 8.00811891 284.19896027 17.02050781 290.95825195 C31.90869292 300.94010333 48.82759755 303.46867245 66.43017578 300.74633789 C69.06928547 300.21499904 71.66565156 299.60586936 74.27050781 298.92700195 C75.06932373 298.72252441 75.86813965 298.51804687 76.69116211 298.30737305 C81.01744921 297.06160575 83.35633491 296.06488769 85.64550781 292.17700195 C86.10049751 289.94573132 86.10049751 289.94573132 86.04956055 287.54785156 C86.06224472 286.63688217 86.07492889 285.72591278 86.08799744 284.78733826 C86.0850618 283.81120071 86.08212616 282.83506317 86.07910156 281.8293457 C86.08434341 280.82110245 86.08958527 279.81285919 86.09498596 278.77406311 C86.10140374 276.64495769 86.10007234 274.5158168 86.09155273 272.38671875 C86.08302952 269.12281561 86.11182978 265.86065465 86.14355469 262.59692383 C86.14516641 260.52856498 86.14458973 258.46020302 86.14160156 256.3918457 C86.15283554 255.41368393 86.16406952 254.43552216 86.17564392 253.42771912 C86.16626297 252.51990189 86.15688202 251.61208466 86.1472168 250.67675781 C86.14705063 249.87829941 86.14688446 249.079841 86.14671326 248.25718689 C85.80258189 246.01772428 85.80258189 246.01772428 83.84135437 244.41903687 C80.56543391 242.56608062 77.33120008 242.76805923 73.66894531 242.8137207 C72.90248688 242.8132222 72.13602844 242.81272369 71.34634399 242.81221008 C69.73086953 242.81454533 68.11539108 242.82424147 66.5 242.84082031 C64.02213213 242.86448644 61.54533553 242.86136844 59.06738281 242.85473633 C57.49706388 242.86031094 55.92674948 242.86741945 54.35644531 242.8762207 C53.61373383 242.8753093 52.87102234 242.87439789 52.10580444 242.87345886 C47.91833853 242.79720928 47.91833853 242.79720928 44.64550781 245.17700195 C44.36403877 247.77748129 44.36403877 247.77748129 44.45800781 250.67700195 C44.46767578 252.1465332 44.46767578 252.1465332 44.47753906 253.64575195 C44.48110055 256.17069579 44.48110055 256.17069579 45.64550781 258.17700195 C52.57550781 258.17700195 59.50550781 258.17700195 66.64550781 258.17700195 C66.64550781 266.42700195 66.64550781 274.67700195 66.64550781 283.17700195 C55.37754579 285.20523512 44.72845614 286.27999966 34.38769531 280.4230957 C27.12635343 275.22944534 24.04752454 267.66823414 21.89550781 259.23950195 C20.89106501 246.93507757 21.8983688 234.3451219 29.64550781 224.17700195 C36.38579639 217.31635108 44.54220176 215.07426622 53.95800781 214.80200195 C64.08914811 215.06483814 72.74585947 217.4844601 81.64550781 222.17700195 C82.96550781 222.17700195 84.28550781 222.17700195 85.64550781 222.17700195 C87.27048861 217.30205956 87.59304308 212.26789644 85.47363281 207.59106445 C80.81634324 201.44105387 70.88552965 199.54454094 63.54003906 198.4621582 C45.87730538 196.72210482 27.35516012 200.1250527 13.64550781 212.17700195 Z M107.64550781 202.17700195 C107.44657304 205.2096457 107.37287707 208.15100761 107.38671875 211.18481445 C107.38321411 212.11823669 107.37970947 213.05165894 107.37609863 214.0133667 C107.36727079 217.10965332 107.3731342 220.20571286 107.37988281 223.30200195 C107.37853647 225.44669641 107.37659619 227.59139057 107.37408447 229.73608398 C107.37113178 234.23529968 107.37543553 238.73443608 107.38476562 243.23364258 C107.3961602 249.0111014 107.38960151 254.78837442 107.3776207 260.56582642 C107.37040603 264.99578256 107.37268822 269.4256944 107.37787628 273.85565186 C107.37921387 275.98638938 107.37756128 278.11713088 107.37291718 280.24786377 C107.36785841 283.22174797 107.37555305 286.19532801 107.38671875 289.16918945 C107.38267029 290.05652771 107.37862183 290.94386597 107.37445068 291.85809326 C107.18703364 296.49806912 107.18703364 296.49806912 109.64550781 300.17700195 C112.35182475 300.34906305 114.94264722 300.40939212 117.64550781 300.36450195 C118.38285156 300.36385742 119.12019531 300.36321289 119.87988281 300.36254883 C123.89343071 300.40491899 123.89343071 300.40491899 127.64550781 299.17700195 C127.66862902 286.41666325 127.68642176 273.6563295 127.69731998 260.89597416 C127.7025493 254.9714948 127.70964782 249.04702973 127.72094727 243.12255859 C127.73177442 237.41027625 127.73778428 231.69800768 127.74038506 225.98571587 C127.74223962 223.80111919 127.74586081 221.6165233 127.75123787 219.43193245 C127.75844603 216.38347846 127.75949885 213.33508216 127.7590332 210.28662109 C127.76262848 209.37384399 127.76622375 208.46106689 127.76992798 207.52062988 C128.16632439 203.5313274 128.16632439 203.5313274 126.64550781 200.17700195 C123.82134399 200.05037104 121.03255988 199.99179647 118.20800781 199.98950195 C117.02368164 199.97113281 117.02368164 199.97113281 115.81542969 199.95239258 C111.25415872 199.73810637 111.25415872 199.73810637 107.64550781 202.17700195 Z M150.64550781 203.17700195 C150.34904749 206.25395042 150.2359466 209.12843222 150.25732422 212.20654297 C150.25206726 213.13035767 150.2468103 214.05417236 150.24139404 215.00598145 C150.22817274 218.06446153 150.23693903 221.12242269 150.24707031 224.1809082 C150.24505037 226.30175375 150.24213959 228.42259861 150.2383728 230.54344177 C150.2339467 234.98964039 150.24039044 239.4356583 150.25439453 243.88183594 C150.27149688 249.5909667 150.26164024 255.29967473 150.24367714 261.00879002 C150.23285596 265.3881501 150.2362778 269.76740933 150.24406052 274.14677238 C150.2460666 276.25239041 150.24358903 278.3580175 150.23662186 280.46362495 C150.22903365 283.40161664 150.24057413 286.33891561 150.25732422 289.27685547 C150.25125153 290.15327194 150.24517883 291.02968842 150.23892212 291.93266296 C150.23144051 294.59009481 150.23144051 294.59009481 150.64550781 298.17700195 C154.32473648 300.62982107 156.26810132 300.44524115 160.64550781 300.42700195 C161.88300781 300.4321582 163.12050781 300.43731445 164.39550781 300.44262695 C167.79223926 300.42951556 167.79223926 300.42951556 170.64550781 298.17700195 C170.91204727 295.19749205 170.99318565 292.42814375 170.93847656 289.45043945 C170.9321093 288.15621567 170.9321093 288.15621567 170.9256134 286.83584595 C170.90879174 284.07424998 170.87113379 281.31337813 170.83300781 278.55200195 C170.81796546 276.68222081 170.80427627 274.81242825 170.79199219 272.94262695 C170.75887687 268.35380537 170.7070712 263.76552651 170.64550781 259.17700195 C172.08385986 259.20056763 172.08385986 259.20056763 173.55126953 259.22460938 C177.10326767 259.27884115 180.65522912 259.31332693 184.20751953 259.34179688 C185.74599355 259.35689906 187.28442442 259.37738241 188.82275391 259.40332031 C191.03200922 259.43964269 193.24069629 259.45671314 195.45019531 259.4699707 C196.13983368 259.48545456 196.82947205 259.50093842 197.54000854 259.51689148 C199.68979368 259.55238079 199.68979368 259.55238079 202.64550781 259.17700195 C204.74291617 256.03088942 204.89879 255.26512117 204.83300781 251.67700195 C204.82333984 250.5168457 204.82333984 250.5168457 204.81347656 249.33325195 C204.71856431 246.99351346 204.71856431 246.99351346 203.64550781 244.17700195 C192.75550781 244.17700195 181.86550781 244.17700195 170.64550781 244.17700195 C170.64550781 234.93700195 170.64550781 225.69700195 170.64550781 216.17700195 C181.86550781 216.17700195 193.08550781 216.17700195 204.64550781 216.17700195 C206.65050316 212.21701726 206.65050316 212.21701726 206.89550781 208.17700195 C206.90066406 207.51700195 206.90582031 206.85700195 206.91113281 206.17700195 C206.60217518 203.85073272 205.72881486 202.24249304 204.64550781 200.17700195 C197.43732437 200.10105383 190.22924376 200.04844518 183.02075195 200.01220703 C180.56758773 199.99710314 178.11445058 199.97661874 175.66137695 199.95068359 C172.13909226 199.91437138 168.617164 199.89729159 165.09472656 199.8840332 C163.99464767 199.86854935 162.89456879 199.85306549 161.76115417 199.83711243 C160.74032242 199.83688583 159.71949066 199.83665924 158.66772461 199.83642578 C157.31870308 199.82643303 157.31870308 199.82643303 155.94242859 199.8162384 C153.11644405 200.26009882 152.41094807 200.97115522 150.64550781 203.17700195 Z " fill="#0071FF" transform="translate(152.3544921875,31.822998046875)"/>
<path d="M0 0 C6.02330123 3.34953359 10.56154878 8.28729314 15.38598633 13.14306641 C16.3118454 14.06702713 17.23770447 14.99098785 18.19161987 15.94294739 C20.71856682 18.46506872 23.23925507 20.99335966 25.75869584 23.5229764 C28.398794 26.17188536 31.04419043 28.81549351 33.68888855 31.45980835 C38.12470545 35.89656005 42.55664152 40.33715826 46.98608398 44.78027344 C52.10993247 49.91987938 57.23902126 55.05420754 62.37112027 60.18557417 C67.31034073 65.12418493 72.24670126 70.06564339 77.18146324 75.00870895 C79.28154106 77.11232041 81.38246868 79.21507774 83.48404884 81.31718826 C86.41270903 84.24703681 89.33709078 87.18111916 92.26098633 90.11572266 C93.13628494 90.99056808 94.01158356 91.86541351 94.91340637 92.76676941 C95.70545471 93.56308273 96.49750305 94.35939606 97.31355286 95.17984009 C98.00540082 95.8733639 98.69724878 96.5668877 99.41006184 97.28142738 C101.85121088 99.92007837 102.22134306 101.79612005 102.375 105.3125 C102.42398438 106.07175781 102.47296875 106.83101563 102.5234375 107.61328125 C101.72433489 111.25695061 99.84627136 112.66350858 97 115 C93.67285156 115.63110352 93.67285156 115.63110352 89.890625 115.62890625 C88.87116791 115.6352433 88.87116791 115.6352433 87.83111572 115.64170837 C85.63611321 115.64460156 83.44452016 115.60697867 81.25 115.5625 C80.50290771 115.55379883 79.75581543 115.54509766 78.98608398 115.53613281 C55.58111382 115.24404281 36.12866288 109.09366999 18 94 C17.01128906 93.21753906 16.02257812 92.43507813 15.00390625 91.62890625 C-0.27231658 78.25972814 -10.16686627 57.9396371 -13 38 C-13.27349302 33.24250099 -13.35415608 28.48699725 -13.4050293 23.72290039 C-13.42670512 22.19728085 -13.46092099 20.67178879 -13.50756836 19.14672852 C-13.57458984 16.92929542 -13.60201012 14.71439643 -13.62109375 12.49609375 C-13.6461499 11.17794678 -13.67120605 9.8597998 -13.69702148 8.50170898 C-12.98525034 4.92590038 -12.74858759 4.32640053 -10.17993164 2.06665039 C-6.32565856 -0.43825722 -4.5159784 -0.72578224 0 0 Z " fill="#0071FF" transform="translate(333,45)"/>
</svg>
