<?xml version="1.0" encoding="UTF-8"?>
<svg version="1.1" xmlns="http://www.w3.org/2000/svg" width="512" height="512">
<path d="M0 0 C1.66889837 -0.00373886 3.33779498 -0.00834132 5.00668883 -0.01373065 C9.58310423 -0.02594687 14.15944644 -0.0257018 18.73587441 -0.02334189 C23.67535287 -0.02293338 28.61480797 -0.03397617 33.55427551 -0.04345703 C43.22804998 -0.06006039 52.90180007 -0.06556628 62.5755876 -0.06668179 C70.44000046 -0.06763256 78.30440529 -0.07174434 86.16881561 -0.07808304 C108.47246555 -0.09569353 130.77609625 -0.10492219 153.07975319 -0.10342209 C154.88283914 -0.10330222 154.88283914 -0.10330222 156.72235107 -0.10317993 C158.52764194 -0.10305729 158.52764194 -0.10305729 160.36940333 -0.10293217 C179.87356472 -0.10211929 199.37764888 -0.12125788 218.88178793 -0.14945666 C238.91496448 -0.17819148 258.94810338 -0.19199663 278.98130107 -0.19026911 C290.2258205 -0.18960543 301.47025897 -0.19508847 312.71475983 -0.21662521 C322.28860972 -0.23484482 331.86234193 -0.23917788 341.43620166 -0.22560637 C346.31871873 -0.21908074 351.20101009 -0.21894496 356.08350563 -0.23631287 C360.55827496 -0.2520664 365.03264004 -0.2491567 369.50739965 -0.2317446 C371.12109329 -0.22867974 372.73481728 -0.23228766 374.34847513 -0.24346475 C389.91762166 -0.34411257 403.2954933 3.12111769 414.99334717 13.95492554 C423.67731898 23.14868516 427.05889954 33.84618226 427.01077271 46.23501587 C427.01530382 47.10318113 427.01983493 47.97134639 427.02450335 48.86581969 C427.0370997 51.75657933 427.03553007 54.64714941 427.03387451 57.53793335 C427.03986275 59.61814108 427.04666898 61.69834659 427.05422974 63.77854919 C427.07186723 69.41714305 427.07658419 75.05567616 427.07786131 80.69429493 C427.07928479 84.22085257 427.08355814 87.74739485 427.08885574 91.27394867 C427.10734889 103.5877022 427.11552729 115.90141249 427.11395264 128.21517944 C427.11275158 139.67590549 427.13384879 151.1364431 427.16543996 162.59712148 C427.19163061 172.45132557 427.20231875 182.30546822 427.20104182 192.15970683 C427.20053299 198.03869045 427.20617254 203.91750657 427.22739792 209.79645538 C427.24682706 215.3287328 427.24687267 220.86068371 427.23236465 226.39297295 C427.23028124 228.41654121 427.23494938 230.44013016 427.24708557 232.4636631 C427.3421006 249.41172282 424.98403523 263.51932741 413.11834717 276.51742554 C404.91950487 284.29137582 393.80119675 288.51176037 382.59049702 288.52469444 C381.90222392 288.52820052 381.21395083 288.53170659 380.50482097 288.53531891 C378.20544868 288.54460049 375.90633146 288.53971806 373.60694885 288.53485107 C371.93891354 288.53858898 370.27087998 288.54319106 368.60284919 288.54858172 C364.02417448 288.56080994 359.44557285 288.56055145 354.86688554 288.55819297 C349.92670782 288.55778475 344.98655352 288.56882444 340.04638672 288.57830811 C330.36913304 288.59491845 320.69190372 288.60041768 311.01463697 288.60153286 C303.14733978 288.60248338 295.28005062 288.60659389 287.41275597 288.61293411 C265.10319788 288.63054714 242.79365903 288.63977297 220.48409394 288.63827316 C219.28147124 288.63819325 218.07884853 288.63811334 216.83978271 288.63803101 C215.63568997 288.63794924 214.43159722 288.63786748 213.19101682 288.63778324 C193.68032533 288.63697048 174.16971107 288.65610568 154.65904192 288.68430774 C134.62137697 288.71304277 114.58374968 288.72684767 94.5460636 288.72512019 C83.29817582 288.72445647 72.05036898 288.72994079 60.80249977 288.75147629 C51.22496587 288.76969626 41.6475496 288.77402872 32.07000587 288.76045744 C27.18547052 288.75393177 22.30116078 288.75379616 17.41664696 288.77116394 C12.93998736 288.78691747 8.46373185 288.78400777 3.98708197 288.76659568 C2.37268549 288.76353079 0.75825868 288.76713882 -0.85610201 288.77831583 C-16.4339731 288.87897522 -29.73798201 285.38579549 -41.50665283 274.64242554 C-49.87227823 265.8195696 -53.57028378 254.35776561 -53.52407837 242.42008972 C-53.52860948 241.55277888 -53.53314059 240.68546805 -53.53780901 239.79187506 C-53.55042605 236.89800959 -53.54883437 234.00433298 -53.54718018 231.11044312 C-53.55316718 229.03038289 -53.55997312 226.95032487 -53.5675354 224.87026978 C-53.5851869 219.22748463 -53.58989048 213.58476017 -53.59116697 207.94195008 C-53.59258982 204.41322021 -53.59686201 200.8845057 -53.60216141 197.35577965 C-53.62066019 185.03554685 -53.62883237 172.71535731 -53.6272583 160.39511108 C-53.62605755 148.92702143 -53.64714732 137.45912019 -53.67874563 125.9910782 C-53.70493687 116.13264802 -53.71562437 106.27427926 -53.71434748 96.41581458 C-53.71383861 90.53346264 -53.71948042 84.65127811 -53.74070358 78.76896095 C-53.76013336 73.23259299 -53.7601779 67.69655129 -53.74567032 62.16017151 C-53.74358688 60.13499154 -53.74825518 58.1097909 -53.76039124 56.08464622 C-53.8552856 39.14431113 -51.53890671 24.94182236 -39.56915283 12.01742554 C-27.90943889 1.00423493 -15.23332853 -0.03230621 0 0 Z M-18.25665283 38.26742554 C-21.75858391 43.52032216 -21.40339492 50.13165623 -21.3903656 56.22418213 C-21.39263116 57.0077062 -21.39489671 57.79123028 -21.39723092 58.59849751 C-21.40354291 61.21455507 -21.40274337 63.83056044 -21.4019165 66.44662476 C-21.40490972 68.32613186 -21.40831263 70.20563836 -21.41209412 72.08514404 C-21.42092126 77.18434012 -21.42327168 82.2835194 -21.4239099 87.38272238 C-21.42462108 90.56985873 -21.42675667 93.75699083 -21.42940712 96.94412613 C-21.43865593 108.06670655 -21.44274254 119.18927499 -21.44195557 130.31185913 C-21.44135473 140.67398207 -21.45190882 151.03605296 -21.46769923 161.39816272 C-21.48078059 170.30024837 -21.48613922 179.20231701 -21.48550016 188.1044122 C-21.48524537 193.41874658 -21.48808623 198.73303468 -21.49867821 204.04735947 C-21.5083693 209.04601779 -21.5084314 214.04458568 -21.50116158 219.04324722 C-21.50011703 220.87498354 -21.50247089 222.70672553 -21.50852203 224.53845215 C-21.51626332 227.04464103 -21.51158312 229.55051926 -21.50389099 232.05670166 C-21.50903455 232.77636828 -21.51417812 233.49603491 -21.51947755 234.23750961 C-21.47075105 241.45346401 -20.53538787 247.9886905 -15.25665283 253.26742554 C-10.3433303 256.54297389 -4.26049947 256.39258801 1.45635796 256.39605999 C2.10921974 256.39781303 2.76208153 256.39956606 3.43472701 256.40137222 C5.61956149 256.40601938 7.80432905 256.40357005 9.98916626 256.40113831 C11.57256694 256.40300692 13.15596716 256.40530783 14.73936665 256.40800363 C19.08857526 256.4141217 23.43776465 256.41398802 27.78697658 256.41280925 C32.47827752 256.41260525 37.16957229 256.41812393 41.86087036 256.42286682 C51.05096769 256.43117378 60.2410586 256.43392168 69.43115936 256.4344792 C76.90043819 256.4349543 84.36971491 256.43700875 91.83899307 256.44017982 C113.01263086 256.44898622 134.18626357 256.45359918 155.3599032 256.45284935 C156.5014153 256.45280939 157.64292739 256.45276944 158.81903076 256.45272827 C159.96193534 256.45268739 161.10483992 256.45264651 162.28237797 256.45260439 C180.80966555 256.45219784 199.33693282 256.46176977 217.86421452 256.47586664 C236.88481328 256.49022477 255.90540212 256.49713714 274.92600644 256.49627286 C285.60590099 256.49594072 296.28577424 256.49869555 306.96566391 256.50945091 C316.05765712 256.51854846 325.14961937 256.52073727 334.24161516 256.51394149 C338.88053002 256.51067263 343.51938545 256.51063283 348.15829468 256.51929474 C352.40584773 256.52714436 356.65329407 256.52574405 360.90084447 256.51701061 C362.43646399 256.51547224 363.97209142 256.51730445 365.50770162 256.52287068 C378.11473093 256.85376572 378.11473093 256.85376572 389.61834717 252.39242554 C394.65628264 247.35449006 394.84880894 241.40980566 394.88175267 234.50499642 C394.88020407 233.78086835 394.87865547 233.05674029 394.87705994 232.31066895 C394.87932549 231.52714487 394.88159105 230.74362079 394.88392526 229.93635356 C394.89023725 227.32029601 394.8894377 224.70429063 394.88861084 222.08822632 C394.89160406 220.20871921 394.89500697 218.32921272 394.89878845 216.44970703 C394.9076156 211.35051096 394.90996601 206.25133167 394.91060424 201.1521287 C394.91131541 197.96499234 394.91345101 194.77786024 394.91610146 191.59072495 C394.92535027 180.46814452 394.92943688 169.34557608 394.9286499 158.22299194 C394.92804907 147.86086901 394.93860316 137.49879812 394.95439357 127.13668835 C394.96747492 118.2346027 394.97283356 109.33253406 394.97219449 100.43043888 C394.9719397 95.1161045 394.97478056 89.8018164 394.98537254 84.48749161 C394.99506363 79.48883328 394.99512573 74.49026539 394.98785591 69.49160385 C394.98681137 67.65986753 394.98916523 65.82812555 394.99521637 63.99639893 C395.00295766 61.49021005 394.99827745 58.98433182 394.99058533 56.47814941 C394.99830067 55.39864948 394.99830067 55.39864948 395.00617188 54.29734147 C394.95744539 47.08138706 394.0220822 40.54616057 388.74334717 35.26742554 C383.83002463 31.99187718 377.7471938 32.14226306 372.03033638 32.13879108 C371.37747459 32.13703805 370.7246128 32.13528501 370.05196732 32.13347885 C367.86713284 32.12883169 365.68236529 32.13128103 363.49752808 32.13371277 C361.91412739 32.13184415 360.33072717 32.12954325 358.74732769 32.12684745 C354.39811908 32.12072937 350.04892969 32.12086305 345.69971776 32.12204182 C341.00841681 32.12224582 336.31712205 32.11672714 331.62582397 32.11198425 C322.43572665 32.10367729 313.24563574 32.1009294 304.05553497 32.10037187 C296.58625614 32.09989677 289.11697943 32.09784232 281.64770126 32.09467125 C260.47406348 32.08586486 239.30043076 32.0812519 218.12679113 32.08200172 C216.98527904 32.08204168 215.84376694 32.08208164 214.66766357 32.0821228 C212.9533067 32.08218412 212.9533067 32.08218412 211.20431636 32.08224668 C192.67702878 32.08265324 174.14976152 32.07308131 155.62247981 32.05898444 C136.60188106 32.04462631 117.58129221 32.03771393 98.5606879 32.03857821 C87.88079335 32.03891036 77.2009201 32.03615553 66.52103043 32.02540016 C57.42903721 32.01630262 48.33707496 32.0141138 39.24507917 32.02090959 C34.60616432 32.02417844 29.96730889 32.02421824 25.32839966 32.01555634 C21.08084661 32.00770671 16.83340026 32.00910702 12.58584987 32.01784047 C11.05023034 32.01937884 9.51460292 32.01754662 7.97899272 32.01198039 C-6.27473369 31.54888384 -6.27473369 31.54888384 -18.25665283 38.26742554 Z " fill="currentColor" transform="translate(69.25665283203125,111.73257446289063)"/>
<path d="M0 0 C73.92 0 147.84 0 224 0 C224 10.56 224 21.12 224 32 C150.08 32 76.16 32 0 32 C0 21.44 0 10.88 0 0 Z " fill="currentColor" transform="translate(144,304)"/>
<path d="M0 0 C10.56 0 21.12 0 32 0 C32 10.56 32 21.12 32 32 C21.44 32 10.88 32 0 32 C0 21.44 0 10.88 0 0 Z " fill="currentColor" transform="translate(400,304)"/>
<path d="M0 0 C10.56 0 21.12 0 32 0 C32 10.56 32 21.12 32 32 C21.44 32 10.88 32 0 32 C0 21.44 0 10.88 0 0 Z " fill="currentColor" transform="translate(80,304)"/>
<path d="M0 0 C10.56 0 21.12 0 32 0 C32 10.56 32 21.12 32 32 C21.44 32 10.88 32 0 32 C0 21.44 0 10.88 0 0 Z " fill="currentColor" transform="translate(400,240)"/>
<path d="M0 0 C10.56 0 21.12 0 32 0 C32 10.56 32 21.12 32 32 C21.44 32 10.88 32 0 32 C0 21.44 0 10.88 0 0 Z " fill="currentColor" transform="translate(336,240)"/>
<path d="M0 0 C10.56 0 21.12 0 32 0 C32 10.56 32 21.12 32 32 C21.44 32 10.88 32 0 32 C0 21.44 0 10.88 0 0 Z " fill="currentColor" transform="translate(272,240)"/>
<path d="M0 0 C10.56 0 21.12 0 32 0 C32 10.56 32 21.12 32 32 C21.44 32 10.88 32 0 32 C0 21.44 0 10.88 0 0 Z " fill="currentColor" transform="translate(208,240)"/>
<path d="M0 0 C10.56 0 21.12 0 32 0 C32 10.56 32 21.12 32 32 C21.44 32 10.88 32 0 32 C0 21.44 0 10.88 0 0 Z " fill="currentColor" transform="translate(144,240)"/>
<path d="M0 0 C10.56 0 21.12 0 32 0 C32 10.56 32 21.12 32 32 C21.44 32 10.88 32 0 32 C0 21.44 0 10.88 0 0 Z " fill="currentColor" transform="translate(80,240)"/>
<path d="M0 0 C10.56 0 21.12 0 32 0 C32 10.56 32 21.12 32 32 C21.44 32 10.88 32 0 32 C0 21.44 0 10.88 0 0 Z " fill="currentColor" transform="translate(400,176)"/>
<path d="M0 0 C10.56 0 21.12 0 32 0 C32 10.56 32 21.12 32 32 C21.44 32 10.88 32 0 32 C0 21.44 0 10.88 0 0 Z " fill="currentColor" transform="translate(336,176)"/>
<path d="M0 0 C10.56 0 21.12 0 32 0 C32 10.56 32 21.12 32 32 C21.44 32 10.88 32 0 32 C0 21.44 0 10.88 0 0 Z " fill="currentColor" transform="translate(272,176)"/>
<path d="M0 0 C10.56 0 21.12 0 32 0 C32 10.56 32 21.12 32 32 C21.44 32 10.88 32 0 32 C0 21.44 0 10.88 0 0 Z " fill="currentColor" transform="translate(208,176)"/>
<path d="M0 0 C10.56 0 21.12 0 32 0 C32 10.56 32 21.12 32 32 C21.44 32 10.88 32 0 32 C0 21.44 0 10.88 0 0 Z " fill="currentColor" transform="translate(144,176)"/>
<path d="M0 0 C10.56 0 21.12 0 32 0 C32 10.56 32 21.12 32 32 C21.44 32 10.88 32 0 32 C0 21.44 0 10.88 0 0 Z " fill="currentColor" transform="translate(80,176)"/>
</svg>
