<?xml version="1.0" encoding="UTF-8"?>
<svg version="1.1" xmlns="http://www.w3.org/2000/svg" width="512" height="512">
<path d="M0 0 C1.51671886 1.26424817 3.0593383 2.49722026 4.60253906 3.72900391 C19.28864031 15.68237492 33.1902857 29.28168978 44.33349609 44.62451172 C45.62066708 46.38127784 46.9453607 48.10442915 48.27832031 49.82666016 C72.45591287 81.38831197 88.32687017 120.12752123 94.56347656 159.30322266 C94.72428711 160.30675781 94.88509766 161.31029297 95.05078125 162.34423828 C99.15307909 189.19102865 98.85784384 216.50430539 94.56347656 243.30322266 C94.40782227 244.28097656 94.25216797 245.25873047 94.09179688 246.26611328 C83.83070262 307.66882901 48.55341729 366.91574741 -1.70214844 404.01318359 C-3.45613547 405.31781021 -5.18141301 406.65442649 -6.90527344 407.99853516 C-58.49573872 447.71022316 -126.64664264 463.36497081 -190.72607422 455.71557617 C-232.1290536 450.25493496 -271.20213463 435.19680584 -305.43652344 411.30322266 C-306.15565918 410.80177734 -306.87479492 410.30033203 -307.61572266 409.78369141 C-318.02591578 402.43816999 -327.32460976 394.18751632 -336.43652344 385.30322266 C-337.07509277 384.69043457 -337.71366211 384.07764648 -338.37158203 383.44628906 C-346.67181637 375.47831329 -354.27219981 367.3099454 -361.12597656 358.0625 C-362.45449434 356.27909852 -363.81012381 354.5191275 -365.17089844 352.76025391 C-404.6647793 301.10368044 -421.02435224 232.73318877 -412.84033203 168.60058594 C-412.40469949 165.49544331 -411.93264328 162.39924907 -411.43652344 159.30322266 C-411.28086914 158.32546875 -411.12521484 157.34771484 -410.96484375 156.34033203 C-402.66879853 106.69653249 -378.42754956 60.28925426 -343.43652344 24.30322266 C-342.82550781 23.66642578 -342.21449219 23.02962891 -341.58496094 22.37353516 C-333.27930111 13.73697254 -324.82481479 5.71874882 -315.1796875 -1.40234375 C-313.40167473 -2.7226552 -311.64898673 -4.07204745 -309.89746094 -5.42724609 C-231.90738178 -65.10203185 -121.53510399 -69.85830349 0 0 Z " fill="#2F6FDD" transform="translate(414.4365234375,54.69677734375)"/>
<path d="M0 0 C12.42224174 10.39773082 19.76584284 22.52302065 23.8125 38.1875 C23.98958874 38.80172569 24.16667747 39.41595139 24.34913254 40.04878998 C24.87862699 42.49271446 24.94449123 44.71825806 24.95294189 47.21936035 C24.95865204 48.23404388 24.96436218 49.24872742 24.97024536 50.29415894 C24.97192215 51.95549362 24.97192215 51.95549362 24.97363281 53.65039062 C24.97859772 54.82163483 24.98356262 55.99287903 24.98867798 57.19961548 C25.00077656 60.41083164 25.0082431 63.62201141 25.01268864 66.83324623 C25.01562559 68.84415082 25.01973173 70.85504979 25.02419281 72.86595154 C25.03786635 79.17067833 25.04753158 85.47539218 25.0513947 91.78013277 C25.05586392 99.03259997 25.07335924 106.28487762 25.1023953 113.53728724 C25.12410805 119.15789494 25.1341042 124.77844973 25.13543582 130.39909887 C25.13647778 133.74854452 25.1437283 137.09767117 25.16025543 140.44709778 C25.1774211 144.1946929 25.17540931 147.94183402 25.16894531 151.68945312 C25.1781601 152.78081573 25.18737488 153.87217834 25.1968689 154.99661255 C25.14152213 165.30482332 23.00793096 174.98339502 18.3125 184.1875 C17.97210693 184.859021 17.63171387 185.53054199 17.28100586 186.22241211 C8.18571212 203.25357726 -8.13754902 214.27458502 -26.1875 220.1875 C-40.96035048 223.42695866 -57.47272057 222.52258239 -71.1875 216.1875 C-72.15429688 215.7646875 -73.12109375 215.341875 -74.1171875 214.90625 C-89.98826543 207.17303356 -102.02001346 192.36911802 -108.50275135 176.19633675 C-111.19925232 168.28565266 -111.48105258 160.32587591 -111.4621582 152.04345703 C-111.46726913 150.87133667 -111.47238007 149.69921631 -111.47764587 148.49157715 C-111.49146955 144.64276935 -111.49059054 140.79414207 -111.48828125 136.9453125 C-111.49059497 134.9344191 -111.49409906 132.92353004 -111.497688 130.91263855 C-111.50874341 124.59782809 -111.50924309 118.28307714 -111.50317383 111.96826172 C-111.49713751 105.48463012 -111.50944538 99.00121572 -111.5307439 92.51762116 C-111.54843871 86.9223599 -111.55434891 81.32716728 -111.55110615 75.73187912 C-111.54930558 72.40266223 -111.55314744 69.07372314 -111.56582069 65.74451065 C-111.57823904 62.02628374 -111.57136063 58.30855178 -111.55981445 54.59033203 C-111.56745819 53.50839569 -111.57510193 52.42645935 -111.58297729 51.31173706 C-111.45647745 32.76193832 -103.84802264 17.3438609 -91.171875 4.078125 C-65.69586911 -20.26561396 -27.45332059 -20.96435391 0 0 Z " fill="#FEFEFE" transform="translate(299.1875,103.8125)"/>
<path d="M0 0 C2.87029869 1.79393668 4.49131638 2.98263276 6 6 C6.19375772 8.12291066 6.38273173 10.24640357 6.54345703 12.37207031 C8.67955691 39.55053259 18.92903508 63.9102293 40 82 C60.17214379 97.7804004 84.37234267 105.60533967 110 103 C136.11046367 99.09316278 159.09631304 86.76179985 175.1953125 65.5859375 C184.9892939 51.55213731 190.84389608 36.36245029 192.484375 19.2890625 C192.56212158 18.48428467 192.63986816 17.67950684 192.7199707 16.8503418 C192.86174081 15.2778233 192.98614651 13.7036127 193.09057617 12.12817383 C193.50778592 7.22582299 194.4871831 4.47282278 198 1 C201.47263273 -0.73631636 205.21193013 -0.60190402 209 0 C211.75569447 2.18159145 213.43588747 3.87177494 215 7 C217.33691368 35.85816665 204.52083635 63.88912672 186.75390625 85.765625 C167.41565338 108.24074242 140.16137552 121.08386245 111 124 C111 134.23 111 144.46 111 155 C114.26261719 154.96519531 117.52523437 154.93039062 120.88671875 154.89453125 C124.05069097 154.87112719 127.2146535 154.8529154 130.37866211 154.83520508 C132.57564621 154.82012948 134.77260026 154.79966574 136.96948242 154.77368164 C140.12947 154.73724498 143.28905924 154.72026116 146.44921875 154.70703125 C147.91979988 154.68380547 147.91979988 154.68380547 149.42008972 154.66011047 C155.66306293 154.65857381 159.0765136 155.46631179 163.875 159.625 C165.67939414 163.43427651 165.09501562 167.00209061 164 171 C161.75410675 173.99452434 160.55130633 174.81623122 157 176 C155.44024881 176.09947413 153.87665187 176.14350139 152.31376648 176.15390015 C150.86914536 176.16680084 150.86914536 176.16680084 149.39533997 176.17996216 C148.34021713 176.18422211 147.2850943 176.18848206 146.19799805 176.19287109 C145.08553711 176.20104858 143.97307617 176.20922607 142.8269043 176.21765137 C139.13851461 176.2425029 135.45016337 176.2590196 131.76171875 176.2734375 C130.50321421 176.27876118 129.24470966 176.28408485 127.94806862 176.28956985 C122.65940906 176.31079697 117.37075527 176.32992729 112.08206463 176.34119225 C104.5099254 176.35742891 96.93829944 176.3906072 89.36635369 176.44759309 C83.39537731 176.49099426 77.42451524 176.50694035 71.45337868 176.51332474 C68.91562048 176.52004887 66.3778701 176.53530082 63.84021568 176.55921555 C60.28980701 176.59076918 56.74069714 176.59091792 53.19018555 176.58349609 C52.14113541 176.59990143 51.09208527 176.61630676 50.01124573 176.63320923 C45.40157823 176.59374052 42.05074243 176.56127426 38.3618927 173.60391235 C35.37556546 170.31158058 34.91720764 168.52249614 34.6875 164.22265625 C35.23528501 160.32653534 37.16101017 158.64092077 40 156 C42.39582346 154.80208827 43.86777538 154.8793256 46.54150391 154.88647461 C47.48232819 154.88655014 48.42315247 154.88662567 49.39248657 154.88670349 C50.41023163 154.89186478 51.42797668 154.89702606 52.4765625 154.90234375 C54.03713882 154.90446617 54.03713882 154.90446617 55.62924194 154.90663147 C58.96119021 154.91224134 62.29307195 154.92479553 65.625 154.9375 C67.88020736 154.94251373 70.13541578 154.94707686 72.390625 154.95117188 C77.92712975 154.96136426 83.46349017 154.9809378 89 155 C89 144.77 89 134.54 89 124 C83.555 123.505 83.555 123.505 78 123 C50.2450228 118.50606785 24.57550623 101.40169471 8 79 C-6.17032116 59.1639511 -18.46131918 31.97360396 -15 7 C-11.61041298 0.09160417 -7.24944534 -1.06833931 0 0 Z " fill="#FCFDFE" transform="translate(156,247)"/>
</svg>
