<?xml version="1.0" encoding="UTF-8"?>
<svg version="1.1" xmlns="http://www.w3.org/2000/svg" width="512" height="512">
<path d="M0 0 C13.67470286 -0.06980874 27.34936265 -0.12296719 41.02420807 -0.15543652 C47.37541543 -0.17102775 53.7265 -0.19214543 60.07763672 -0.22631836 C66.21793305 -0.25914644 72.35811199 -0.27690209 78.49848938 -0.28463173 C80.82979681 -0.29013342 83.16109852 -0.30087563 85.49235535 -0.31719017 C101.03453446 -0.42153546 116.24914544 -0.34174645 130.8125 5.8125 C131.42303223 6.07039307 132.03356445 6.32828613 132.66259766 6.59399414 C142.01091563 10.62681788 150.22663679 15.43191436 158 22 C158.80179687 22.65613281 159.60359375 23.31226562 160.4296875 23.98828125 C177.52237826 38.55167976 188.9350542 59.70708405 192 82 C192.09643583 84.72927823 192.14784612 87.43306435 192.14717102 90.16194153 C192.15084771 90.96770038 192.1545244 91.77345923 192.1583125 92.60363501 C192.16929836 95.29541492 192.17318456 97.98715616 192.17700195 100.67895508 C192.1832707 102.61282472 192.18991787 104.54669316 192.19691467 106.4805603 C192.21791731 112.82687549 192.22831696 119.17319079 192.23828125 125.51953125 C192.24233092 127.71019694 192.24644791 129.9008625 192.25063133 132.09152794 C192.26967862 142.39063116 192.28390781 152.68972725 192.2922433 162.98884469 C192.30199915 174.84497524 192.32827749 186.70091827 192.36874419 198.55698282 C192.39900323 207.74030991 192.41372163 216.92358358 192.41702431 226.10695952 C192.41936459 231.58205509 192.42819049 237.05695025 192.45348549 242.53199196 C192.4769415 247.69243884 192.48092968 252.85255587 192.47072411 258.01304245 C192.47023279 259.89422268 192.47643207 261.77542013 192.49028015 263.65654945 C192.68494089 291.69690341 183.92437693 315.77575787 164 336 C145.4033589 354.62773916 121.4126217 363.47226431 95.44490051 363.54211426 C93.65402041 363.53434156 91.86314209 363.52614918 90.07226562 363.51757812 C88.13676938 363.52301359 86.20127728 363.53014415 84.26579285 363.53881836 C79.06117327 363.55688543 73.8568747 363.5500536 68.65225029 363.53730202 C63.17363574 363.52708739 57.69504643 363.53659096 52.21643066 363.54284668 C43.0207024 363.55009865 33.82510315 363.54059999 24.62939453 363.52148438 C14.03821868 363.49972045 3.44735097 363.50677356 -7.14381742 363.52879 C-16.28068261 363.54701413 -25.4174557 363.5494682 -34.55433321 363.53903532 C-39.99234337 363.53283878 -45.43020928 363.53185791 -50.86820984 363.54518127 C-55.98370789 363.55684184 -61.09881344 363.54853005 -66.21426964 363.52560425 C-68.07770325 363.52037116 -69.94117061 363.52173667 -71.80459023 363.53065491 C-99.82495768 363.65226759 -123.60700892 354.55084088 -144 335 C-166.47047391 311.57738736 -171.51232748 284.37638459 -171.29296875 253.03125 C-171.28736136 250.65515412 -171.28309668 248.27905472 -171.28010559 245.9029541 C-171.26874678 239.7019463 -171.23935834 233.50115516 -171.20599365 227.30023193 C-171.17509778 220.9514865 -171.16155886 214.60270547 -171.14648438 208.25390625 C-171.11447876 195.83584322 -171.06339302 183.41793975 -171 171 C-170.08783722 170.99191315 -169.17567444 170.98382629 -168.23587036 170.97549438 C-159.55884106 170.89693292 -150.88195412 170.80946774 -142.20511055 170.71247292 C-137.74630854 170.6629312 -133.28752556 170.61660481 -128.82861328 170.578125 C-124.5101719 170.5407308 -120.19190848 170.49424038 -115.87362289 170.44193649 C-114.24179136 170.4236751 -112.60992212 170.40846811 -110.97803116 170.39665604 C-102.39196382 170.33239743 -93.90037697 170.02481121 -85.35888672 169.10693359 C-84.27953448 168.99317351 -84.27953448 168.99317351 -83.17837715 168.87711525 C-59.01966403 166.03103632 -36.32504981 152.37470038 -21.10546875 133.671875 C-10.39155155 119.06418654 -3.68714323 103.12959931 -1.89306641 85.09448242 C-1.80962793 84.27379619 -1.72618946 83.45310995 -1.64022255 82.60755444 C-0.81948475 73.98683709 -0.6496803 65.39219382 -0.5859375 56.73828125 C-0.56715075 55.08390927 -0.54757232 53.42954612 -0.5272522 51.77519226 C-0.47671538 47.49292292 -0.4366791 43.21062275 -0.39910889 38.92822266 C-0.35856671 34.52954999 -0.30770814 30.13099663 -0.2578125 25.73242188 C-0.16198698 17.15503054 -0.07729499 8.57757829 0 0 Z M66 101 C63.72016471 106.19174349 63.70846199 111.00087205 63.734375 116.5625 C63.73246155 117.47201416 63.7305481 118.38152832 63.72857666 119.31860352 C63.72722023 121.23486611 63.73087867 123.15113806 63.73925781 125.06738281 C63.749965 127.99044555 63.73934406 130.91289374 63.7265625 133.8359375 C63.72788419 135.70312635 63.73044678 137.57031482 63.734375 139.4375 C63.73032654 140.30640869 63.72627808 141.17531738 63.72210693 142.07055664 C63.76595497 147.7811685 64.2150882 152.55400975 67.6875 157.3125 C70.88277587 159.6441878 73.05550755 160 77 160 C81.05214957 157.93569739 83.33365029 156.21601178 85 152 C85.30609336 149.73596534 85.30609336 149.73596534 85.2746582 147.31079102 C85.28419022 146.38625626 85.29372223 145.4617215 85.30354309 144.50917053 C85.30263168 143.51743332 85.30172028 142.52569611 85.30078125 141.50390625 C85.30506638 140.4782103 85.3093515 139.45251434 85.31376648 138.39573669 C85.31950583 136.2279433 85.32001296 134.06013064 85.31567383 131.89233398 C85.31251504 128.57827856 85.33597446 125.26511688 85.36132812 121.95117188 C85.36360129 119.84375113 85.36430454 117.73632798 85.36328125 115.62890625 C85.372491 114.63919327 85.38170074 113.64948029 85.39118958 112.629776 C85.34953917 106.42655986 84.68124509 102.77700384 80.25 98.1875 C74.7135361 95.26547739 70.09225023 96.55698546 66 101 Z M-96.875 216.625 C-98.67143262 220.41746887 -97.83978928 223.97127027 -97 228 C-95.92224279 230.92715911 -94.52391951 233.59482763 -93 236.3125 C-92.59918213 237.04597656 -92.19836426 237.77945313 -91.78540039 238.53515625 C-88.07981159 245.15760278 -83.83427036 251.14159337 -79 257 C-78.03126953 258.19689453 -78.03126953 258.19689453 -77.04296875 259.41796875 C-71.98541431 265.40256983 -66.20820753 270.24533612 -60 275 C-58.83017578 275.91072266 -58.83017578 275.91072266 -57.63671875 276.83984375 C-33.99406963 294.36321898 -3.15193098 301.87431321 25.91210938 298.03515625 C48.14887434 294.67549393 69.00809431 285.76945445 86 271 C86.81984375 270.31292969 87.6396875 269.62585938 88.484375 268.91796875 C100.99830143 258.13345141 116.20399935 240.75965726 119.40625 223.85546875 C119.68696862 220.07278541 119.11396182 218.16230926 116.9375 215.0625 C113.38459775 212.56790906 111.34095695 211.92384286 107 212 C100.92427239 214.98499603 98.95515473 219.162469 96.125 225.125 C91.32642598 234.7330477 85.82393867 242.57728895 78 250 C77.54882812 250.50660156 77.09765625 251.01320313 76.6328125 251.53515625 C62.80267483 266.63821704 39.73164378 275.95643657 19.57739258 277.14257812 C-7.76682477 278.12659843 -32.37610976 271.84953221 -53.3125 253.5625 C-54.89390284 252.06133201 -56.45688318 250.54049692 -58 249 C-58.76957031 248.24203125 -59.53914063 247.4840625 -60.33203125 246.703125 C-66.6151603 240.15240101 -70.76886872 232.94378696 -75 225 C-75.93354645 223.26869568 -76.87042097 221.5391762 -77.8125 219.8125 C-78.16957031 219.13832031 -78.52664062 218.46414063 -78.89453125 217.76953125 C-81.03374935 214.34527047 -82.39844582 213.15595849 -86.375 212.125 C-91.33453507 211.95398155 -93.25234101 213.48536221 -96.875 216.625 Z " fill="#000000" transform="translate(256,85)"/>
<path d="M0 0 C0.0933116 10.02390854 0.16407173 20.04771116 0.20724869 30.07196808 C0.22798754 34.72831228 0.25604953 39.384356 0.30175781 44.04052734 C0.34571106 48.54690946 0.36923966 53.05300539 0.37950897 57.55958557 C0.38681273 59.26571651 0.40107058 60.97183453 0.42292023 62.67784119 C0.59767611 76.90861774 -0.87580557 90.59542219 -7.75 103.375 C-8.09434082 104.03508057 -8.43868164 104.69516113 -8.79345703 105.37524414 C-18.97101909 124.29329095 -35.58536737 135.71948639 -55.625 142.08984375 C-61.43665446 143.65710705 -66.93120525 144.14361517 -72.93310547 144.11352539 C-73.7045137 144.11367142 -74.47592194 144.11381744 -75.27070618 144.1139679 C-77.80289591 144.11327508 -80.33501072 144.10551241 -82.8671875 144.09765625 C-84.6298112 144.09578983 -86.39243541 144.09436698 -88.15505981 144.09336853 C-92.78118334 144.08956103 -97.40727518 144.07974589 -102.03338623 144.06866455 C-106.75923229 144.05841238 -111.48508351 144.05386277 -116.2109375 144.04882812 C-125.47397221 144.03812198 -134.73698346 144.02106686 -144 144 C-140.19997931 139.46274549 -136.27745071 135.1323003 -132.08415222 130.95716858 C-131.23835074 130.10902711 -131.23835074 130.10902711 -130.37546235 129.24375147 C-128.5055132 127.36984742 -126.63205082 125.49949792 -124.75854492 123.62915039 C-123.40933897 122.27858804 -122.06034554 120.92781334 -120.71154785 119.57684326 C-117.06345851 115.92421059 -113.41223206 112.27472923 -109.76028228 108.62595677 C-105.93824214 104.80645314 -102.11864773 100.98450498 -98.29866028 97.16294861 C-91.89076416 90.7532359 -85.48076802 84.34562899 -79.06958008 77.93920898 C-71.647874 70.52295848 -64.22979608 63.10309353 -56.81356543 55.68136793 C-50.44674111 49.31001455 -44.07798136 42.94060074 -37.70758134 36.57282251 C-33.90207591 32.76887921 -30.09725684 28.964256 -26.29417992 25.1578846 C-22.72515216 21.58598068 -19.15371104 18.01650795 -15.58034515 14.44894409 C-14.26565142 13.13557874 -12.95181923 11.82135035 -11.63888741 10.50622368 C-9.85519188 8.71982003 -8.06848467 6.93648623 -6.28092957 5.15394592 C-5.75487521 4.62566084 -5.22882085 4.09737577 -4.68682545 3.55308205 C-1.11415073 0 -1.11415073 0 0 0 Z " fill="#000000" transform="translate(235,91)"/>
</svg>
